<?xml version="1.0" encoding="utf-8" standalone="no"?>
<!DOCTYPE svg PUBLIC "-//W3C//DTD SVG 1.1//EN"
  "http://www.w3.org/Graphics/SVG/1.1/DTD/svg11.dtd">
<!-- Created with matplotlib (https://matplotlib.org/) -->
<svg height="720pt" version="1.1" viewBox="0 0 1080 720" width="1080pt" xmlns="http://www.w3.org/2000/svg" xmlns:xlink="http://www.w3.org/1999/xlink">
 <metadata>
  <rdf:RDF xmlns:cc="http://creativecommons.org/ns#" xmlns:dc="http://purl.org/dc/elements/1.1/" xmlns:rdf="http://www.w3.org/1999/02/22-rdf-syntax-ns#">
   <cc:Work>
    <dc:type rdf:resource="http://purl.org/dc/dcmitype/StillImage"/>
    <dc:date>2021-01-29T07:39:44.755513</dc:date>
    <dc:format>image/svg+xml</dc:format>
    <dc:creator>
     <cc:Agent>
      <dc:title>Matplotlib v3.3.3, https://matplotlib.org/</dc:title>
     </cc:Agent>
    </dc:creator>
   </cc:Work>
  </rdf:RDF>
 </metadata>
 <defs>
  <style type="text/css">*{stroke-linecap:butt;stroke-linejoin:round;}</style>
 </defs>
 <g id="figure_1">
  <g id="patch_1">
   <path d="M 0 720 
L 1080 720 
L 1080 0 
L 0 0 
z
" style="fill:#ffffff;"/>
  </g>
  <g id="axes_1">
   <g id="patch_2">
    <path d="M 135 640.8 
L 972 640.8 
L 972 86.4 
L 135 86.4 
z
" style="fill:#ffffff;"/>
   </g>
   <g id="matplotlib.axis_1">
    <g id="xtick_1">
     <g id="line2d_1">
      <defs>
       <path d="M 0 0 
L 0 3.5 
" id="m685d7d6f13" style="stroke:#000000;stroke-width:0.8;"/>
      </defs>
      <g>
       <use style="stroke:#000000;stroke-width:0.8;" x="173.045455" xlink:href="#m685d7d6f13" y="640.8"/>
      </g>
     </g>
     <g id="text_1">
      <!-- 0 -->
      <g transform="translate(169.864205 655.398438)scale(0.1 -0.1)">
       <defs>
        <path d="M 31.78125 66.40625 
Q 24.171875 66.40625 20.328125 58.90625 
Q 16.5 51.421875 16.5 36.375 
Q 16.5 21.390625 20.328125 13.890625 
Q 24.171875 6.390625 31.78125 6.390625 
Q 39.453125 6.390625 43.28125 13.890625 
Q 47.125 21.390625 47.125 36.375 
Q 47.125 51.421875 43.28125 58.90625 
Q 39.453125 66.40625 31.78125 66.40625 
z
M 31.78125 74.21875 
Q 44.046875 74.21875 50.515625 64.515625 
Q 56.984375 54.828125 56.984375 36.375 
Q 56.984375 17.96875 50.515625 8.265625 
Q 44.046875 -1.421875 31.78125 -1.421875 
Q 19.53125 -1.421875 13.0625 8.265625 
Q 6.59375 17.96875 6.59375 36.375 
Q 6.59375 54.828125 13.0625 64.515625 
Q 19.53125 74.21875 31.78125 74.21875 
z
" id="DejaVuSans-48"/>
       </defs>
       <use xlink:href="#DejaVuSans-48"/>
      </g>
     </g>
    </g>
    <g id="xtick_2">
     <g id="line2d_2">
      <g>
       <use style="stroke:#000000;stroke-width:0.8;" x="286.284518" xlink:href="#m685d7d6f13" y="640.8"/>
      </g>
     </g>
     <g id="text_2">
      <!-- 50 -->
      <g transform="translate(279.922018 655.398438)scale(0.1 -0.1)">
       <defs>
        <path d="M 10.796875 72.90625 
L 49.515625 72.90625 
L 49.515625 64.59375 
L 19.828125 64.59375 
L 19.828125 46.734375 
Q 21.96875 47.46875 24.109375 47.828125 
Q 26.265625 48.1875 28.421875 48.1875 
Q 40.625 48.1875 47.75 41.5 
Q 54.890625 34.8125 54.890625 23.390625 
Q 54.890625 11.625 47.5625 5.09375 
Q 40.234375 -1.421875 26.90625 -1.421875 
Q 22.3125 -1.421875 17.546875 -0.640625 
Q 12.796875 0.140625 7.71875 1.703125 
L 7.71875 11.625 
Q 12.109375 9.234375 16.796875 8.0625 
Q 21.484375 6.890625 26.703125 6.890625 
Q 35.15625 6.890625 40.078125 11.328125 
Q 45.015625 15.765625 45.015625 23.390625 
Q 45.015625 31 40.078125 35.4375 
Q 35.15625 39.890625 26.703125 39.890625 
Q 22.75 39.890625 18.8125 39.015625 
Q 14.890625 38.140625 10.796875 36.28125 
z
" id="DejaVuSans-53"/>
       </defs>
       <use xlink:href="#DejaVuSans-53"/>
       <use x="63.623047" xlink:href="#DejaVuSans-48"/>
      </g>
     </g>
    </g>
    <g id="xtick_3">
     <g id="line2d_3">
      <g>
       <use style="stroke:#000000;stroke-width:0.8;" x="399.523582" xlink:href="#m685d7d6f13" y="640.8"/>
      </g>
     </g>
     <g id="text_3">
      <!-- 100 -->
      <g transform="translate(389.979832 655.398438)scale(0.1 -0.1)">
       <defs>
        <path d="M 12.40625 8.296875 
L 28.515625 8.296875 
L 28.515625 63.921875 
L 10.984375 60.40625 
L 10.984375 69.390625 
L 28.421875 72.90625 
L 38.28125 72.90625 
L 38.28125 8.296875 
L 54.390625 8.296875 
L 54.390625 0 
L 12.40625 0 
z
" id="DejaVuSans-49"/>
       </defs>
       <use xlink:href="#DejaVuSans-49"/>
       <use x="63.623047" xlink:href="#DejaVuSans-48"/>
       <use x="127.246094" xlink:href="#DejaVuSans-48"/>
      </g>
     </g>
    </g>
    <g id="xtick_4">
     <g id="line2d_4">
      <g>
       <use style="stroke:#000000;stroke-width:0.8;" x="512.762646" xlink:href="#m685d7d6f13" y="640.8"/>
      </g>
     </g>
     <g id="text_4">
      <!-- 150 -->
      <g transform="translate(503.218896 655.398438)scale(0.1 -0.1)">
       <use xlink:href="#DejaVuSans-49"/>
       <use x="63.623047" xlink:href="#DejaVuSans-53"/>
       <use x="127.246094" xlink:href="#DejaVuSans-48"/>
      </g>
     </g>
    </g>
    <g id="xtick_5">
     <g id="line2d_5">
      <g>
       <use style="stroke:#000000;stroke-width:0.8;" x="626.00171" xlink:href="#m685d7d6f13" y="640.8"/>
      </g>
     </g>
     <g id="text_5">
      <!-- 200 -->
      <g transform="translate(616.45796 655.398438)scale(0.1 -0.1)">
       <defs>
        <path d="M 19.1875 8.296875 
L 53.609375 8.296875 
L 53.609375 0 
L 7.328125 0 
L 7.328125 8.296875 
Q 12.9375 14.109375 22.625 23.890625 
Q 32.328125 33.6875 34.8125 36.53125 
Q 39.546875 41.84375 41.421875 45.53125 
Q 43.3125 49.21875 43.3125 52.78125 
Q 43.3125 58.59375 39.234375 62.25 
Q 35.15625 65.921875 28.609375 65.921875 
Q 23.96875 65.921875 18.8125 64.3125 
Q 13.671875 62.703125 7.8125 59.421875 
L 7.8125 69.390625 
Q 13.765625 71.78125 18.9375 73 
Q 24.125 74.21875 28.421875 74.21875 
Q 39.75 74.21875 46.484375 68.546875 
Q 53.21875 62.890625 53.21875 53.421875 
Q 53.21875 48.921875 51.53125 44.890625 
Q 49.859375 40.875 45.40625 35.40625 
Q 44.1875 33.984375 37.640625 27.21875 
Q 31.109375 20.453125 19.1875 8.296875 
z
" id="DejaVuSans-50"/>
       </defs>
       <use xlink:href="#DejaVuSans-50"/>
       <use x="63.623047" xlink:href="#DejaVuSans-48"/>
       <use x="127.246094" xlink:href="#DejaVuSans-48"/>
      </g>
     </g>
    </g>
    <g id="xtick_6">
     <g id="line2d_6">
      <g>
       <use style="stroke:#000000;stroke-width:0.8;" x="739.240774" xlink:href="#m685d7d6f13" y="640.8"/>
      </g>
     </g>
     <g id="text_6">
      <!-- 250 -->
      <g transform="translate(729.697024 655.398438)scale(0.1 -0.1)">
       <use xlink:href="#DejaVuSans-50"/>
       <use x="63.623047" xlink:href="#DejaVuSans-53"/>
       <use x="127.246094" xlink:href="#DejaVuSans-48"/>
      </g>
     </g>
    </g>
    <g id="xtick_7">
     <g id="line2d_7">
      <g>
       <use style="stroke:#000000;stroke-width:0.8;" x="852.479838" xlink:href="#m685d7d6f13" y="640.8"/>
      </g>
     </g>
     <g id="text_7">
      <!-- 300 -->
      <g transform="translate(842.936088 655.398438)scale(0.1 -0.1)">
       <defs>
        <path d="M 40.578125 39.3125 
Q 47.65625 37.796875 51.625 33 
Q 55.609375 28.21875 55.609375 21.1875 
Q 55.609375 10.40625 48.1875 4.484375 
Q 40.765625 -1.421875 27.09375 -1.421875 
Q 22.515625 -1.421875 17.65625 -0.515625 
Q 12.796875 0.390625 7.625 2.203125 
L 7.625 11.71875 
Q 11.71875 9.328125 16.59375 8.109375 
Q 21.484375 6.890625 26.8125 6.890625 
Q 36.078125 6.890625 40.9375 10.546875 
Q 45.796875 14.203125 45.796875 21.1875 
Q 45.796875 27.640625 41.28125 31.265625 
Q 36.765625 34.90625 28.71875 34.90625 
L 20.21875 34.90625 
L 20.21875 43.015625 
L 29.109375 43.015625 
Q 36.375 43.015625 40.234375 45.921875 
Q 44.09375 48.828125 44.09375 54.296875 
Q 44.09375 59.90625 40.109375 62.90625 
Q 36.140625 65.921875 28.71875 65.921875 
Q 24.65625 65.921875 20.015625 65.03125 
Q 15.375 64.15625 9.8125 62.3125 
L 9.8125 71.09375 
Q 15.4375 72.65625 20.34375 73.4375 
Q 25.25 74.21875 29.59375 74.21875 
Q 40.828125 74.21875 47.359375 69.109375 
Q 53.90625 64.015625 53.90625 55.328125 
Q 53.90625 49.265625 50.4375 45.09375 
Q 46.96875 40.921875 40.578125 39.3125 
z
" id="DejaVuSans-51"/>
       </defs>
       <use xlink:href="#DejaVuSans-51"/>
       <use x="63.623047" xlink:href="#DejaVuSans-48"/>
       <use x="127.246094" xlink:href="#DejaVuSans-48"/>
      </g>
     </g>
    </g>
    <g id="xtick_8">
     <g id="line2d_8">
      <g>
       <use style="stroke:#000000;stroke-width:0.8;" x="965.718902" xlink:href="#m685d7d6f13" y="640.8"/>
      </g>
     </g>
     <g id="text_8">
      <!-- 350 -->
      <g transform="translate(956.175152 655.398438)scale(0.1 -0.1)">
       <use xlink:href="#DejaVuSans-51"/>
       <use x="63.623047" xlink:href="#DejaVuSans-53"/>
       <use x="127.246094" xlink:href="#DejaVuSans-48"/>
      </g>
     </g>
    </g>
   </g>
   <g id="matplotlib.axis_2">
    <g id="ytick_1">
     <g id="line2d_9">
      <defs>
       <path d="M 0 0 
L -3.5 0 
" id="mf035a6a526" style="stroke:#000000;stroke-width:0.8;"/>
      </defs>
      <g>
       <use style="stroke:#000000;stroke-width:0.8;" x="135" xlink:href="#mf035a6a526" y="639.066072"/>
      </g>
     </g>
     <g id="text_9">
      <!-- −50 -->
      <g transform="translate(106.895313 642.865291)scale(0.1 -0.1)">
       <defs>
        <path d="M 10.59375 35.5 
L 73.1875 35.5 
L 73.1875 27.203125 
L 10.59375 27.203125 
z
" id="DejaVuSans-8722"/>
       </defs>
       <use xlink:href="#DejaVuSans-8722"/>
       <use x="83.789062" xlink:href="#DejaVuSans-53"/>
       <use x="147.412109" xlink:href="#DejaVuSans-48"/>
      </g>
     </g>
    </g>
    <g id="ytick_2">
     <g id="line2d_10">
      <g>
       <use style="stroke:#000000;stroke-width:0.8;" x="135" xlink:href="#mf035a6a526" y="525.827008"/>
      </g>
     </g>
     <g id="text_10">
      <!-- 0 -->
      <g transform="translate(121.6375 529.626227)scale(0.1 -0.1)">
       <use xlink:href="#DejaVuSans-48"/>
      </g>
     </g>
    </g>
    <g id="ytick_3">
     <g id="line2d_11">
      <g>
       <use style="stroke:#000000;stroke-width:0.8;" x="135" xlink:href="#mf035a6a526" y="412.587944"/>
      </g>
     </g>
     <g id="text_11">
      <!-- 50 -->
      <g transform="translate(115.275 416.387163)scale(0.1 -0.1)">
       <use xlink:href="#DejaVuSans-53"/>
       <use x="63.623047" xlink:href="#DejaVuSans-48"/>
      </g>
     </g>
    </g>
    <g id="ytick_4">
     <g id="line2d_12">
      <g>
       <use style="stroke:#000000;stroke-width:0.8;" x="135" xlink:href="#mf035a6a526" y="299.348881"/>
      </g>
     </g>
     <g id="text_12">
      <!-- 100 -->
      <g transform="translate(108.9125 303.148099)scale(0.1 -0.1)">
       <use xlink:href="#DejaVuSans-49"/>
       <use x="63.623047" xlink:href="#DejaVuSans-48"/>
       <use x="127.246094" xlink:href="#DejaVuSans-48"/>
      </g>
     </g>
    </g>
    <g id="ytick_5">
     <g id="line2d_13">
      <g>
       <use style="stroke:#000000;stroke-width:0.8;" x="135" xlink:href="#mf035a6a526" y="186.109817"/>
      </g>
     </g>
     <g id="text_13">
      <!-- 150 -->
      <g transform="translate(108.9125 189.909035)scale(0.1 -0.1)">
       <use xlink:href="#DejaVuSans-49"/>
       <use x="63.623047" xlink:href="#DejaVuSans-53"/>
       <use x="127.246094" xlink:href="#DejaVuSans-48"/>
      </g>
     </g>
    </g>
   </g>
   <g id="line2d_14">
    <path clip-path="url(#p2d345c9aeb)" d="M 173.045455 525.827008 
L 325.494554 525.728467 
L 336.4715 525.449714 
L 345.609227 524.97075 
L 352.904716 524.369692 
L 360.177556 523.53904 
L 367.417062 522.456054 
L 374.611983 521.108477 
L 381.751632 519.493479 
L 388.82692 517.616388 
L 395.831175 515.48937 
L 402.760701 513.130069 
L 409.615027 510.560284 
L 416.396863 507.804702 
L 424.780964 504.139242 
L 433.076598 500.277463 
L 442.942149 495.456167 
L 457.631056 488.004254 
L 472.27344 480.46112 
L 472.27344 480.46112 
" style="fill:none;stroke:#000000;stroke-linecap:square;stroke-width:1.5;"/>
   </g>
   <g id="line2d_15">
    <path clip-path="url(#p2d345c9aeb)" d="M 173.045455 517.900274 
L 325.378839 517.802577 
L 336.168154 517.528786 
L 345.071854 517.062252 
L 352.134821 516.480435 
L 359.144726 515.679881 
L 366.102498 514.639083 
L 373.007744 513.345776 
L 379.859315 511.79593 
L 386.656245 509.992656 
L 393.398534 507.945142 
L 400.087692 505.66762 
L 406.727044 503.178368 
L 413.321776 500.498749 
L 421.512988 496.917508 
L 429.661191 493.124274 
L 441.028825 487.550989 
L 457.259239 479.282702 
L 468.63985 473.416254 
L 468.63985 473.416254 
" style="fill:none;stroke:#0000ff;stroke-dasharray:5.55,2.4;stroke-dashoffset:0;stroke-width:1.5;"/>
   </g>
   <g id="line2d_16">
    <path clip-path="url(#p2d345c9aeb)" d="M 173.045455 533.753743 
L 325.610268 533.654357 
L 336.774846 533.370642 
L 346.1466 532.879249 
L 353.674612 532.258949 
L 361.210387 531.398199 
L 368.731626 530.273026 
L 376.216221 528.871179 
L 383.64395 527.191027 
L 390.997594 525.24012 
L 398.263816 523.033598 
L 405.433711 520.592517 
L 412.50301 517.942199 
L 419.471951 515.110656 
L 428.04894 511.360977 
L 436.492004 507.430652 
L 446.478009 502.550588 
L 461.251284 495.055996 
L 475.90703 487.505987 
L 475.90703 487.505987 
" style="fill:none;stroke:#ff0000;stroke-dasharray:5.55,2.4;stroke-dashoffset:0;stroke-width:1.5;"/>
   </g>
   <g id="line2d_17">
    <path clip-path="url(#p2d345c9aeb)" d="M 472.27344 480.46112 
L 515.987972 458.019293 
L 524.649281 453.860862 
L 530.91856 451.069267 
L 537.275416 448.483687 
L 542.430265 446.594598 
L 547.647594 444.885776 
L 552.924213 443.369991 
L 558.253885 442.05283 
L 563.628519 440.933071 
L 569.039319 440.003443 
L 575.840696 439.089466 
L 582.670583 438.419808 
L 590.888229 437.882192 
L 600.489544 437.526378 
L 612.841057 437.320535 
L 626.566538 437.207982 
L 626.566538 437.207982 
" style="fill:none;stroke:#000000;stroke-linecap:square;stroke-width:1.5;"/>
   </g>
   <g id="line2d_18">
    <path clip-path="url(#p2d345c9aeb)" d="M 468.63985 473.416254 
L 512.469084 450.916438 
L 521.32507 446.66484 
L 527.803591 443.780228 
L 534.426261 441.086699 
L 539.828997 439.10684 
L 545.317549 437.309232 
L 550.878674 435.711734 
L 556.495829 434.323512 
L 562.151607 433.145141 
L 567.829108 432.169638 
L 573.513034 431.383722 
L 580.607562 430.639863 
L 587.673223 430.120747 
L 596.098085 429.728168 
L 607.231038 429.463544 
L 626.50756 429.281467 
L 626.50756 429.281467 
" style="fill:none;stroke:#0000ff;stroke-dasharray:5.55,2.4;stroke-dashoffset:0;stroke-width:1.5;"/>
   </g>
   <g id="line2d_19">
    <path clip-path="url(#p2d345c9aeb)" d="M 475.90703 487.505987 
L 519.50686 465.122148 
L 527.973492 461.056885 
L 534.033529 458.358306 
L 540.124571 455.880675 
L 546.264093 453.660229 
L 551.221138 452.086198 
L 556.225516 450.699136 
L 561.280505 449.499744 
L 566.386768 448.483819 
L 572.840009 447.45843 
L 579.36758 446.680904 
L 585.964352 446.118738 
L 593.964018 445.675122 
L 603.398791 445.387799 
L 618.395463 445.197174 
L 626.625516 445.134497 
L 626.625516 445.134497 
" style="fill:none;stroke:#ff0000;stroke-dasharray:5.55,2.4;stroke-dashoffset:0;stroke-width:1.5;"/>
   </g>
   <g id="line2d_20">
    <path clip-path="url(#p2d345c9aeb)" d="M 626.566538 437.207982 
L 682.291278 436.702364 
L 691.894181 436.391229 
L 699.886836 435.920778 
L 706.266503 435.349923 
L 712.62291 434.562246 
L 718.9423 433.519271 
L 723.646991 432.548688 
L 728.312068 431.402942 
L 732.927792 430.072391 
L 737.483932 428.550374 
L 741.970293 426.8336 
L 746.377362 424.922465 
L 750.697053 422.821256 
L 754.92352 420.538257 
L 759.053881 418.085571 
L 763.088547 415.478353 
L 768.32597 411.791601 
L 773.416638 407.904434 
L 779.610106 402.830612 
L 786.866077 396.532746 
L 798.765816 385.816917 
L 801.138286 383.665451 
L 801.138286 383.665451 
" style="fill:none;stroke:#000000;stroke-linecap:square;stroke-width:1.5;"/>
   </g>
   <g id="line2d_21">
    <path clip-path="url(#p2d345c9aeb)" d="M 626.50756 429.281467 
L 682.116684 428.777553 
L 691.538803 428.472465 
L 699.298182 428.015931 
L 705.434407 427.466984 
L 711.498021 426.715735 
L 717.479164 425.728742 
L 723.366654 424.476601 
L 727.713551 423.348817 
L 731.995823 422.050496 
L 736.208657 420.576174 
L 740.348021 418.922833 
L 744.411175 417.090013 
L 748.397284 415.079861 
L 752.307897 412.897215 
L 756.146543 410.549879 
L 761.161928 407.182462 
L 766.075363 403.571984 
L 770.90783 399.753783 
L 776.870636 394.746927 
L 785.154039 387.435527 
L 795.813276 377.793706 
L 795.813276 377.793706 
" style="fill:none;stroke:#0000ff;stroke-dasharray:5.55,2.4;stroke-dashoffset:0;stroke-width:1.5;"/>
   </g>
   <g id="line2d_22">
    <path clip-path="url(#p2d345c9aeb)" d="M 626.625516 445.134497 
L 682.465871 444.627176 
L 692.249558 444.309993 
L 700.475489 443.825625 
L 707.098599 443.232863 
L 713.7478 442.408758 
L 720.405437 441.309801 
L 725.389768 440.281465 
L 730.352621 439.062529 
L 735.279696 437.642178 
L 740.155499 436.013339 
L 744.963987 434.173281 
L 749.689368 432.124113 
L 754.31701 429.873138 
L 758.834477 427.433004 
L 763.233056 424.82112 
L 767.50896 422.0581 
L 773.021776 418.177721 
L 778.332999 414.122352 
L 783.467387 409.94323 
L 789.685514 404.613717 
L 799.33442 395.997026 
L 806.463296 389.537196 
L 806.463296 389.537196 
" style="fill:none;stroke:#ff0000;stroke-dasharray:5.55,2.4;stroke-dashoffset:0;stroke-width:1.5;"/>
   </g>
   <g id="line2d_23">
    <path clip-path="url(#p2d345c9aeb)" d="M 801.138286 383.665451 
L 861.677358 328.644511 
L 869.652817 321.096993 
L 876.15461 314.65837 
L 881.218504 309.372241 
L 886.123158 303.938197 
L 890.832195 298.333965 
L 894.213117 294.008406 
L 897.447275 289.572106 
L 900.519504 285.022224 
L 903.415651 280.358333 
L 906.12312 275.582478 
L 908.631463 270.699125 
L 910.933005 265.714976 
L 913.023475 260.638674 
L 914.902627 255.480384 
L 916.574827 250.251295 
L 918.049581 244.963067 
L 919.341856 239.62724 
L 920.815936 232.457152 
L 922.057664 225.243002 
L 923.376302 216.1881 
L 925.207847 201.662222 
L 926.084723 194.394425 
L 926.084723 194.394425 
" style="fill:none;stroke:#000000;stroke-linecap:square;stroke-width:1.5;"/>
   </g>
   <g id="line2d_24">
    <path clip-path="url(#p2d345c9aeb)" d="M 795.813276 377.793706 
L 856.280085 322.839121 
L 864.143228 315.398086 
L 870.501954 309.101339 
L 875.419044 303.968595 
L 880.150717 298.726375 
L 884.664999 293.354125 
L 887.889168 289.229202 
L 890.960797 285.015932 
L 893.868107 280.710376 
L 896.600502 276.310265 
L 899.148948 271.81498 
L 901.506393 267.225439 
L 903.668205 262.543888 
L 905.632639 257.773597 
L 907.401307 252.918487 
L 908.979661 247.982692 
L 910.377475 242.970103 
L 911.609076 237.884474 
L 913.024664 230.997974 
L 914.228584 224.002589 
L 915.5208 215.127812 
L 917.338606 200.70924 
L 918.214901 193.446257 
L 918.214901 193.446257 
" style="fill:none;stroke:#0000ff;stroke-dasharray:5.55,2.4;stroke-dashoffset:0;stroke-width:1.5;"/>
   </g>
   <g id="line2d_25">
    <path clip-path="url(#p2d345c9aeb)" d="M 806.463296 389.537196 
L 867.074631 334.449902 
L 875.162407 326.7959 
L 881.807267 320.215401 
L 887.017964 314.775886 
L 892.095598 309.150018 
L 896.999392 303.313805 
L 900.537066 298.787609 
L 903.933754 294.128279 
L 907.170901 289.334072 
L 910.230801 284.406401 
L 913.097292 279.349977 
L 915.756534 274.17281 
L 918.197805 268.886064 
L 920.414311 263.503751 
L 922.403948 258.042281 
L 924.169994 252.519899 
L 925.721688 246.956031 
L 927.074636 241.370007 
L 928.607208 233.916331 
L 929.886745 226.483416 
L 931.231804 217.248388 
L 933.077087 202.615204 
L 933.954545 195.342592 
L 933.954545 195.342592 
" style="fill:none;stroke:#ff0000;stroke-dasharray:5.55,2.4;stroke-dashoffset:0;stroke-width:1.5;"/>
   </g>
   <g id="patch_3">
    <path d="M 135 640.8 
L 135 86.4 
" style="fill:none;stroke:#000000;stroke-linecap:square;stroke-linejoin:miter;stroke-width:0.8;"/>
   </g>
   <g id="patch_4">
    <path d="M 972 640.8 
L 972 86.4 
" style="fill:none;stroke:#000000;stroke-linecap:square;stroke-linejoin:miter;stroke-width:0.8;"/>
   </g>
   <g id="patch_5">
    <path d="M 135 640.8 
L 972 640.8 
" style="fill:none;stroke:#000000;stroke-linecap:square;stroke-linejoin:miter;stroke-width:0.8;"/>
   </g>
   <g id="patch_6">
    <path d="M 135 86.4 
L 972 86.4 
" style="fill:none;stroke:#000000;stroke-linecap:square;stroke-linejoin:miter;stroke-width:0.8;"/>
   </g>
  </g>
 </g>
 <defs>
  <clipPath id="p2d345c9aeb">
   <rect height="554.4" width="837" x="135" y="86.4"/>
  </clipPath>
 </defs>
</svg>
