<?xml version="1.0" encoding="utf-8" standalone="no"?>
<!DOCTYPE svg PUBLIC "-//W3C//DTD SVG 1.1//EN"
  "http://www.w3.org/Graphics/SVG/1.1/DTD/svg11.dtd">
<!-- Created with matplotlib (https://matplotlib.org/) -->
<svg height="720pt" version="1.1" viewBox="0 0 1080 720" width="1080pt" xmlns="http://www.w3.org/2000/svg" xmlns:xlink="http://www.w3.org/1999/xlink">
 <metadata>
  <rdf:RDF xmlns:cc="http://creativecommons.org/ns#" xmlns:dc="http://purl.org/dc/elements/1.1/" xmlns:rdf="http://www.w3.org/1999/02/22-rdf-syntax-ns#">
   <cc:Work>
    <dc:type rdf:resource="http://purl.org/dc/dcmitype/StillImage"/>
    <dc:date>2021-02-01T07:36:21.179688</dc:date>
    <dc:format>image/svg+xml</dc:format>
    <dc:creator>
     <cc:Agent>
      <dc:title>Matplotlib v3.3.3, https://matplotlib.org/</dc:title>
     </cc:Agent>
    </dc:creator>
   </cc:Work>
  </rdf:RDF>
 </metadata>
 <defs>
  <style type="text/css">*{stroke-linecap:butt;stroke-linejoin:round;}</style>
 </defs>
 <g id="figure_1">
  <g id="patch_1">
   <path d="M 0 720 
L 1080 720 
L 1080 0 
L 0 0 
z
" style="fill:#ffffff;"/>
  </g>
  <g id="axes_1">
   <g id="patch_2">
    <path d="M 135 640.8 
L 972 640.8 
L 972 86.4 
L 135 86.4 
z
" style="fill:#ffffff;"/>
   </g>
   <g id="matplotlib.axis_1">
    <g id="xtick_1">
     <g id="line2d_1">
      <defs>
       <path d="M 0 0 
L 0 3.5 
" id="m309519f762" style="stroke:#000000;stroke-width:0.8;"/>
      </defs>
      <g>
       <use style="stroke:#000000;stroke-width:0.8;" x="173.045455" xlink:href="#m309519f762" y="640.8"/>
      </g>
     </g>
     <g id="text_1">
      <!-- 0 -->
      <g transform="translate(169.864205 655.398438)scale(0.1 -0.1)">
       <defs>
        <path d="M 31.78125 66.40625 
Q 24.171875 66.40625 20.328125 58.90625 
Q 16.5 51.421875 16.5 36.375 
Q 16.5 21.390625 20.328125 13.890625 
Q 24.171875 6.390625 31.78125 6.390625 
Q 39.453125 6.390625 43.28125 13.890625 
Q 47.125 21.390625 47.125 36.375 
Q 47.125 51.421875 43.28125 58.90625 
Q 39.453125 66.40625 31.78125 66.40625 
z
M 31.78125 74.21875 
Q 44.046875 74.21875 50.515625 64.515625 
Q 56.984375 54.828125 56.984375 36.375 
Q 56.984375 17.96875 50.515625 8.265625 
Q 44.046875 -1.421875 31.78125 -1.421875 
Q 19.53125 -1.421875 13.0625 8.265625 
Q 6.59375 17.96875 6.59375 36.375 
Q 6.59375 54.828125 13.0625 64.515625 
Q 19.53125 74.21875 31.78125 74.21875 
z
" id="DejaVuSans-48"/>
       </defs>
       <use xlink:href="#DejaVuSans-48"/>
      </g>
     </g>
    </g>
    <g id="xtick_2">
     <g id="line2d_2">
      <g>
       <use style="stroke:#000000;stroke-width:0.8;" x="286.284518" xlink:href="#m309519f762" y="640.8"/>
      </g>
     </g>
     <g id="text_2">
      <!-- 50 -->
      <g transform="translate(279.922018 655.398438)scale(0.1 -0.1)">
       <defs>
        <path d="M 10.796875 72.90625 
L 49.515625 72.90625 
L 49.515625 64.59375 
L 19.828125 64.59375 
L 19.828125 46.734375 
Q 21.96875 47.46875 24.109375 47.828125 
Q 26.265625 48.1875 28.421875 48.1875 
Q 40.625 48.1875 47.75 41.5 
Q 54.890625 34.8125 54.890625 23.390625 
Q 54.890625 11.625 47.5625 5.09375 
Q 40.234375 -1.421875 26.90625 -1.421875 
Q 22.3125 -1.421875 17.546875 -0.640625 
Q 12.796875 0.140625 7.71875 1.703125 
L 7.71875 11.625 
Q 12.109375 9.234375 16.796875 8.0625 
Q 21.484375 6.890625 26.703125 6.890625 
Q 35.15625 6.890625 40.078125 11.328125 
Q 45.015625 15.765625 45.015625 23.390625 
Q 45.015625 31 40.078125 35.4375 
Q 35.15625 39.890625 26.703125 39.890625 
Q 22.75 39.890625 18.8125 39.015625 
Q 14.890625 38.140625 10.796875 36.28125 
z
" id="DejaVuSans-53"/>
       </defs>
       <use xlink:href="#DejaVuSans-53"/>
       <use x="63.623047" xlink:href="#DejaVuSans-48"/>
      </g>
     </g>
    </g>
    <g id="xtick_3">
     <g id="line2d_3">
      <g>
       <use style="stroke:#000000;stroke-width:0.8;" x="399.523582" xlink:href="#m309519f762" y="640.8"/>
      </g>
     </g>
     <g id="text_3">
      <!-- 100 -->
      <g transform="translate(389.979832 655.398438)scale(0.1 -0.1)">
       <defs>
        <path d="M 12.40625 8.296875 
L 28.515625 8.296875 
L 28.515625 63.921875 
L 10.984375 60.40625 
L 10.984375 69.390625 
L 28.421875 72.90625 
L 38.28125 72.90625 
L 38.28125 8.296875 
L 54.390625 8.296875 
L 54.390625 0 
L 12.40625 0 
z
" id="DejaVuSans-49"/>
       </defs>
       <use xlink:href="#DejaVuSans-49"/>
       <use x="63.623047" xlink:href="#DejaVuSans-48"/>
       <use x="127.246094" xlink:href="#DejaVuSans-48"/>
      </g>
     </g>
    </g>
    <g id="xtick_4">
     <g id="line2d_4">
      <g>
       <use style="stroke:#000000;stroke-width:0.8;" x="512.762646" xlink:href="#m309519f762" y="640.8"/>
      </g>
     </g>
     <g id="text_4">
      <!-- 150 -->
      <g transform="translate(503.218896 655.398438)scale(0.1 -0.1)">
       <use xlink:href="#DejaVuSans-49"/>
       <use x="63.623047" xlink:href="#DejaVuSans-53"/>
       <use x="127.246094" xlink:href="#DejaVuSans-48"/>
      </g>
     </g>
    </g>
    <g id="xtick_5">
     <g id="line2d_5">
      <g>
       <use style="stroke:#000000;stroke-width:0.8;" x="626.00171" xlink:href="#m309519f762" y="640.8"/>
      </g>
     </g>
     <g id="text_5">
      <!-- 200 -->
      <g transform="translate(616.45796 655.398438)scale(0.1 -0.1)">
       <defs>
        <path d="M 19.1875 8.296875 
L 53.609375 8.296875 
L 53.609375 0 
L 7.328125 0 
L 7.328125 8.296875 
Q 12.9375 14.109375 22.625 23.890625 
Q 32.328125 33.6875 34.8125 36.53125 
Q 39.546875 41.84375 41.421875 45.53125 
Q 43.3125 49.21875 43.3125 52.78125 
Q 43.3125 58.59375 39.234375 62.25 
Q 35.15625 65.921875 28.609375 65.921875 
Q 23.96875 65.921875 18.8125 64.3125 
Q 13.671875 62.703125 7.8125 59.421875 
L 7.8125 69.390625 
Q 13.765625 71.78125 18.9375 73 
Q 24.125 74.21875 28.421875 74.21875 
Q 39.75 74.21875 46.484375 68.546875 
Q 53.21875 62.890625 53.21875 53.421875 
Q 53.21875 48.921875 51.53125 44.890625 
Q 49.859375 40.875 45.40625 35.40625 
Q 44.1875 33.984375 37.640625 27.21875 
Q 31.109375 20.453125 19.1875 8.296875 
z
" id="DejaVuSans-50"/>
       </defs>
       <use xlink:href="#DejaVuSans-50"/>
       <use x="63.623047" xlink:href="#DejaVuSans-48"/>
       <use x="127.246094" xlink:href="#DejaVuSans-48"/>
      </g>
     </g>
    </g>
    <g id="xtick_6">
     <g id="line2d_6">
      <g>
       <use style="stroke:#000000;stroke-width:0.8;" x="739.240774" xlink:href="#m309519f762" y="640.8"/>
      </g>
     </g>
     <g id="text_6">
      <!-- 250 -->
      <g transform="translate(729.697024 655.398438)scale(0.1 -0.1)">
       <use xlink:href="#DejaVuSans-50"/>
       <use x="63.623047" xlink:href="#DejaVuSans-53"/>
       <use x="127.246094" xlink:href="#DejaVuSans-48"/>
      </g>
     </g>
    </g>
    <g id="xtick_7">
     <g id="line2d_7">
      <g>
       <use style="stroke:#000000;stroke-width:0.8;" x="852.479838" xlink:href="#m309519f762" y="640.8"/>
      </g>
     </g>
     <g id="text_7">
      <!-- 300 -->
      <g transform="translate(842.936088 655.398438)scale(0.1 -0.1)">
       <defs>
        <path d="M 40.578125 39.3125 
Q 47.65625 37.796875 51.625 33 
Q 55.609375 28.21875 55.609375 21.1875 
Q 55.609375 10.40625 48.1875 4.484375 
Q 40.765625 -1.421875 27.09375 -1.421875 
Q 22.515625 -1.421875 17.65625 -0.515625 
Q 12.796875 0.390625 7.625 2.203125 
L 7.625 11.71875 
Q 11.71875 9.328125 16.59375 8.109375 
Q 21.484375 6.890625 26.8125 6.890625 
Q 36.078125 6.890625 40.9375 10.546875 
Q 45.796875 14.203125 45.796875 21.1875 
Q 45.796875 27.640625 41.28125 31.265625 
Q 36.765625 34.90625 28.71875 34.90625 
L 20.21875 34.90625 
L 20.21875 43.015625 
L 29.109375 43.015625 
Q 36.375 43.015625 40.234375 45.921875 
Q 44.09375 48.828125 44.09375 54.296875 
Q 44.09375 59.90625 40.109375 62.90625 
Q 36.140625 65.921875 28.71875 65.921875 
Q 24.65625 65.921875 20.015625 65.03125 
Q 15.375 64.15625 9.8125 62.3125 
L 9.8125 71.09375 
Q 15.4375 72.65625 20.34375 73.4375 
Q 25.25 74.21875 29.59375 74.21875 
Q 40.828125 74.21875 47.359375 69.109375 
Q 53.90625 64.015625 53.90625 55.328125 
Q 53.90625 49.265625 50.4375 45.09375 
Q 46.96875 40.921875 40.578125 39.3125 
z
" id="DejaVuSans-51"/>
       </defs>
       <use xlink:href="#DejaVuSans-51"/>
       <use x="63.623047" xlink:href="#DejaVuSans-48"/>
       <use x="127.246094" xlink:href="#DejaVuSans-48"/>
      </g>
     </g>
    </g>
    <g id="xtick_8">
     <g id="line2d_8">
      <g>
       <use style="stroke:#000000;stroke-width:0.8;" x="965.718902" xlink:href="#m309519f762" y="640.8"/>
      </g>
     </g>
     <g id="text_8">
      <!-- 350 -->
      <g transform="translate(956.175152 655.398438)scale(0.1 -0.1)">
       <use xlink:href="#DejaVuSans-51"/>
       <use x="63.623047" xlink:href="#DejaVuSans-53"/>
       <use x="127.246094" xlink:href="#DejaVuSans-48"/>
      </g>
     </g>
    </g>
   </g>
   <g id="matplotlib.axis_2">
    <g id="ytick_1">
     <g id="line2d_9">
      <defs>
       <path d="M 0 0 
L -3.5 0 
" id="m7977af172e" style="stroke:#000000;stroke-width:0.8;"/>
      </defs>
      <g>
       <use style="stroke:#000000;stroke-width:0.8;" x="135" xlink:href="#m7977af172e" y="603.860399"/>
      </g>
     </g>
     <g id="text_9">
      <!-- 0 -->
      <g transform="translate(121.6375 607.659618)scale(0.1 -0.1)">
       <use xlink:href="#DejaVuSans-48"/>
      </g>
     </g>
    </g>
    <g id="ytick_2">
     <g id="line2d_10">
      <g>
       <use style="stroke:#000000;stroke-width:0.8;" x="135" xlink:href="#m7977af172e" y="536.776963"/>
      </g>
     </g>
     <g id="text_10">
      <!-- 20 -->
      <g transform="translate(115.275 540.576182)scale(0.1 -0.1)">
       <use xlink:href="#DejaVuSans-50"/>
       <use x="63.623047" xlink:href="#DejaVuSans-48"/>
      </g>
     </g>
    </g>
    <g id="ytick_3">
     <g id="line2d_11">
      <g>
       <use style="stroke:#000000;stroke-width:0.8;" x="135" xlink:href="#m7977af172e" y="469.693528"/>
      </g>
     </g>
     <g id="text_11">
      <!-- 40 -->
      <g transform="translate(115.275 473.492746)scale(0.1 -0.1)">
       <defs>
        <path d="M 37.796875 64.3125 
L 12.890625 25.390625 
L 37.796875 25.390625 
z
M 35.203125 72.90625 
L 47.609375 72.90625 
L 47.609375 25.390625 
L 58.015625 25.390625 
L 58.015625 17.1875 
L 47.609375 17.1875 
L 47.609375 0 
L 37.796875 0 
L 37.796875 17.1875 
L 4.890625 17.1875 
L 4.890625 26.703125 
z
" id="DejaVuSans-52"/>
       </defs>
       <use xlink:href="#DejaVuSans-52"/>
       <use x="63.623047" xlink:href="#DejaVuSans-48"/>
      </g>
     </g>
    </g>
    <g id="ytick_4">
     <g id="line2d_12">
      <g>
       <use style="stroke:#000000;stroke-width:0.8;" x="135" xlink:href="#m7977af172e" y="402.610092"/>
      </g>
     </g>
     <g id="text_12">
      <!-- 60 -->
      <g transform="translate(115.275 406.409311)scale(0.1 -0.1)">
       <defs>
        <path d="M 33.015625 40.375 
Q 26.375 40.375 22.484375 35.828125 
Q 18.609375 31.296875 18.609375 23.390625 
Q 18.609375 15.53125 22.484375 10.953125 
Q 26.375 6.390625 33.015625 6.390625 
Q 39.65625 6.390625 43.53125 10.953125 
Q 47.40625 15.53125 47.40625 23.390625 
Q 47.40625 31.296875 43.53125 35.828125 
Q 39.65625 40.375 33.015625 40.375 
z
M 52.59375 71.296875 
L 52.59375 62.3125 
Q 48.875 64.0625 45.09375 64.984375 
Q 41.3125 65.921875 37.59375 65.921875 
Q 27.828125 65.921875 22.671875 59.328125 
Q 17.53125 52.734375 16.796875 39.40625 
Q 19.671875 43.65625 24.015625 45.921875 
Q 28.375 48.1875 33.59375 48.1875 
Q 44.578125 48.1875 50.953125 41.515625 
Q 57.328125 34.859375 57.328125 23.390625 
Q 57.328125 12.15625 50.6875 5.359375 
Q 44.046875 -1.421875 33.015625 -1.421875 
Q 20.359375 -1.421875 13.671875 8.265625 
Q 6.984375 17.96875 6.984375 36.375 
Q 6.984375 53.65625 15.1875 63.9375 
Q 23.390625 74.21875 37.203125 74.21875 
Q 40.921875 74.21875 44.703125 73.484375 
Q 48.484375 72.75 52.59375 71.296875 
z
" id="DejaVuSans-54"/>
       </defs>
       <use xlink:href="#DejaVuSans-54"/>
       <use x="63.623047" xlink:href="#DejaVuSans-48"/>
      </g>
     </g>
    </g>
    <g id="ytick_5">
     <g id="line2d_13">
      <g>
       <use style="stroke:#000000;stroke-width:0.8;" x="135" xlink:href="#m7977af172e" y="335.526657"/>
      </g>
     </g>
     <g id="text_13">
      <!-- 80 -->
      <g transform="translate(115.275 339.325875)scale(0.1 -0.1)">
       <defs>
        <path d="M 31.78125 34.625 
Q 24.75 34.625 20.71875 30.859375 
Q 16.703125 27.09375 16.703125 20.515625 
Q 16.703125 13.921875 20.71875 10.15625 
Q 24.75 6.390625 31.78125 6.390625 
Q 38.8125 6.390625 42.859375 10.171875 
Q 46.921875 13.96875 46.921875 20.515625 
Q 46.921875 27.09375 42.890625 30.859375 
Q 38.875 34.625 31.78125 34.625 
z
M 21.921875 38.8125 
Q 15.578125 40.375 12.03125 44.71875 
Q 8.5 49.078125 8.5 55.328125 
Q 8.5 64.0625 14.71875 69.140625 
Q 20.953125 74.21875 31.78125 74.21875 
Q 42.671875 74.21875 48.875 69.140625 
Q 55.078125 64.0625 55.078125 55.328125 
Q 55.078125 49.078125 51.53125 44.71875 
Q 48 40.375 41.703125 38.8125 
Q 48.828125 37.15625 52.796875 32.3125 
Q 56.78125 27.484375 56.78125 20.515625 
Q 56.78125 9.90625 50.3125 4.234375 
Q 43.84375 -1.421875 31.78125 -1.421875 
Q 19.734375 -1.421875 13.25 4.234375 
Q 6.78125 9.90625 6.78125 20.515625 
Q 6.78125 27.484375 10.78125 32.3125 
Q 14.796875 37.15625 21.921875 38.8125 
z
M 18.3125 54.390625 
Q 18.3125 48.734375 21.84375 45.5625 
Q 25.390625 42.390625 31.78125 42.390625 
Q 38.140625 42.390625 41.71875 45.5625 
Q 45.3125 48.734375 45.3125 54.390625 
Q 45.3125 60.0625 41.71875 63.234375 
Q 38.140625 66.40625 31.78125 66.40625 
Q 25.390625 66.40625 21.84375 63.234375 
Q 18.3125 60.0625 18.3125 54.390625 
z
" id="DejaVuSans-56"/>
       </defs>
       <use xlink:href="#DejaVuSans-56"/>
       <use x="63.623047" xlink:href="#DejaVuSans-48"/>
      </g>
     </g>
    </g>
    <g id="ytick_6">
     <g id="line2d_14">
      <g>
       <use style="stroke:#000000;stroke-width:0.8;" x="135" xlink:href="#m7977af172e" y="268.443221"/>
      </g>
     </g>
     <g id="text_14">
      <!-- 100 -->
      <g transform="translate(108.9125 272.24244)scale(0.1 -0.1)">
       <use xlink:href="#DejaVuSans-49"/>
       <use x="63.623047" xlink:href="#DejaVuSans-48"/>
       <use x="127.246094" xlink:href="#DejaVuSans-48"/>
      </g>
     </g>
    </g>
    <g id="ytick_7">
     <g id="line2d_15">
      <g>
       <use style="stroke:#000000;stroke-width:0.8;" x="135" xlink:href="#m7977af172e" y="201.359785"/>
      </g>
     </g>
     <g id="text_15">
      <!-- 120 -->
      <g transform="translate(108.9125 205.159004)scale(0.1 -0.1)">
       <use xlink:href="#DejaVuSans-49"/>
       <use x="63.623047" xlink:href="#DejaVuSans-50"/>
       <use x="127.246094" xlink:href="#DejaVuSans-48"/>
      </g>
     </g>
    </g>
    <g id="ytick_8">
     <g id="line2d_16">
      <g>
       <use style="stroke:#000000;stroke-width:0.8;" x="135" xlink:href="#m7977af172e" y="134.27635"/>
      </g>
     </g>
     <g id="text_16">
      <!-- 140 -->
      <g transform="translate(108.9125 138.075569)scale(0.1 -0.1)">
       <use xlink:href="#DejaVuSans-49"/>
       <use x="63.623047" xlink:href="#DejaVuSans-52"/>
       <use x="127.246094" xlink:href="#DejaVuSans-48"/>
      </g>
     </g>
    </g>
   </g>
   <g id="line2d_17">
    <path clip-path="url(#pb496dd0a0d)" d="M 173.045455 603.860399 
L 323.664589 603.75035 
L 332.813324 603.483286 
L 340.128251 603.065457 
L 347.434692 602.39917 
L 352.904716 601.702094 
L 358.362036 600.813433 
L 363.802179 599.718125 
L 369.220408 598.406151 
L 374.611983 596.872191 
L 379.972434 595.115201 
L 385.297803 593.137965 
L 390.584841 590.946627 
L 395.831175 588.550216 
L 401.035407 585.960171 
L 406.197167 583.189876 
L 413.01472 579.241638 
L 419.762244 575.037568 
L 426.446581 570.617426 
L 434.726788 564.849185 
L 444.579269 557.669237 
L 457.631056 547.844386 
L 472.27344 536.672904 
L 472.27344 536.672904 
" style="fill:none;stroke:#000000;stroke-dasharray:5.55,2.4;stroke-dashoffset:0;stroke-width:1.5;"/>
   </g>
   <g id="line2d_18">
    <path clip-path="url(#pb496dd0a0d)" d="M 173.045455 592.120798 
L 323.570368 592.011579 
L 332.583948 591.748601 
L 339.739518 591.339981 
L 346.842622 590.692362 
L 352.134821 590.017997 
L 357.397152 589.161129 
L 362.630124 588.107564 
L 367.833774 586.847567 
L 373.007744 585.375524 
L 378.151518 583.68955 
L 383.26464 581.791104 
L 388.34691 579.684613 
L 393.398534 577.377112 
L 398.420234 574.877875 
L 403.413312 572.198074 
L 410.029595 568.366303 
L 416.604491 564.269702 
L 423.145525 559.944244 
L 431.287179 554.272403 
L 441.028825 547.173095 
L 454.010829 537.40066 
L 468.63985 526.239361 
L 468.63985 526.239361 
" style="fill:none;stroke:#0000ff;stroke-dasharray:5.55,2.4;stroke-dashoffset:0;stroke-width:1.5;"/>
   </g>
   <g id="line2d_19">
    <path clip-path="url(#pb496dd0a0d)" d="M 173.045455 615.6 
L 323.758811 615.489122 
L 333.042699 615.217972 
L 340.516984 614.790933 
L 348.026761 614.105978 
L 353.674612 613.386191 
L 359.326919 612.465737 
L 364.974235 611.328686 
L 370.607041 609.964735 
L 376.216221 608.368857 
L 381.793351 606.540852 
L 387.330965 604.484827 
L 392.822771 602.208641 
L 398.263816 599.72332 
L 403.65058 597.042467 
L 408.981022 594.181678 
L 415.999844 590.116973 
L 422.919997 585.805435 
L 429.747637 581.290608 
L 438.166396 575.425967 
L 448.129714 568.165378 
L 461.251284 558.288112 
L 475.90703 547.106447 
L 475.90703 547.106447 
" style="fill:none;stroke:#ff0000;stroke-dasharray:5.55,2.4;stroke-dashoffset:0;stroke-width:1.5;"/>
   </g>
   <g id="line2d_20">
    <path clip-path="url(#pb496dd0a0d)" d="M 173.045455 608.556239 
L 183.916405 608.454644 
L 198.411005 608.064407 
L 220.152905 607.233536 
L 252.765756 605.752898 
L 272.695831 604.669557 
L 285.378606 603.795886 
L 294.437731 602.991865 
L 301.68502 602.16736 
L 310.741587 600.879072 
L 321.585658 599.086491 
L 332.362194 597.093664 
L 344.791879 594.572355 
L 360.554085 591.383095 
L 369.262513 589.586092 
L 376.21618 587.940244 
L 383.157828 586.033372 
L 388.354177 584.409042 
L 393.539897 582.610332 
L 398.71294 580.636512 
L 405.587393 577.739631 
L 412.432463 574.557562 
L 419.245971 571.116753 
L 426.027061 567.44798 
L 434.458052 562.589963 
L 442.83931 557.482587 
L 451.169478 552.167274 
L 459.441233 546.656742 
L 467.635784 540.917603 
L 472.500539 537.325 
L 472.500539 537.325 
" style="fill:none;stroke:#000000;stroke-linecap:square;stroke-width:1.5;"/>
   </g>
   <g id="line2d_21">
    <path clip-path="url(#pb496dd0a0d)" d="M 472.27344 536.672904 
L 514.758855 504.341107 
L 522.16267 499.000091 
L 528.401107 494.764422 
L 533.450107 491.57081 
L 538.558235 488.590825 
L 543.728803 485.857483 
L 548.961391 483.396804 
L 554.251951 481.225083 
L 559.593668 479.34798 
L 564.978173 477.761328 
L 570.39665 476.452329 
L 575.840696 475.400922 
L 581.302925 474.58129 
L 586.777295 473.963438 
L 593.630477 473.425164 
L 601.86173 473.036396 
L 612.841057 472.781112 
L 626.566538 472.61442 
L 626.566538 472.61442 
" style="fill:none;stroke:#000000;stroke-dasharray:5.55,2.4;stroke-dashoffset:0;stroke-width:1.5;"/>
   </g>
   <g id="line2d_22">
    <path clip-path="url(#pb496dd0a0d)" d="M 468.63985 526.239361 
L 511.221048 493.83561 
L 518.771302 488.389195 
L 525.195394 484.027685 
L 530.435004 480.71363 
L 535.7684 477.602349 
L 541.193513 474.734546 
L 546.701643 472.14435 
L 550.878674 470.398456 
L 555.087239 468.827167 
L 559.319973 467.431444 
L 564.988647 465.838408 
L 570.671138 464.537028 
L 576.353261 463.503734 
L 582.02348 462.708733 
L 587.673223 462.118127 
L 594.698422 461.612483 
L 603.069195 461.254711 
L 614.13745 461.021744 
L 626.50756 460.875143 
L 626.50756 460.875143 
" style="fill:none;stroke:#0000ff;stroke-dasharray:5.55,2.4;stroke-dashoffset:0;stroke-width:1.5;"/>
   </g>
   <g id="line2d_23">
    <path clip-path="url(#pb496dd0a0d)" d="M 475.90703 547.106447 
L 518.296661 514.846604 
L 525.554037 509.610986 
L 531.60682 505.50116 
L 536.46521 502.427991 
L 541.34807 499.579301 
L 546.264093 496.980419 
L 551.221138 494.649259 
L 556.225516 492.595001 
L 561.280505 490.818685 
L 566.386768 489.314086 
L 571.543262 488.068461 
L 576.747948 487.063376 
L 581.998288 486.275633 
L 587.291529 485.67831 
L 593.964018 485.154368 
L 602.044918 484.772862 
L 612.923304 484.520081 
L 626.625516 484.353696 
L 626.625516 484.353696 
" style="fill:none;stroke:#ff0000;stroke-dasharray:5.55,2.4;stroke-dashoffset:0;stroke-width:1.5;"/>
   </g>
   <g id="line2d_24">
    <path clip-path="url(#pb496dd0a0d)" d="M 472.500539 537.325 
L 473.708231 536.402475 
L 474.912646 535.470544 
L 476.114207 534.530414 
L 477.313304 533.583213 
L 478.510307 532.629995 
L 479.705561 531.671757 
L 480.899395 530.709443 
L 482.092126 529.743959 
L 483.284056 528.776177 
L 484.475482 527.806947 
L 485.666694 526.837104 
L 486.857982 525.867478 
L 488.049635 524.898899 
L 489.241946 523.932211 
L 490.435215 522.968273 
L 491.629751 522.007974 
L 492.825876 521.052238 
L 494.023929 520.102037 
L 495.224267 519.158395 
L 496.427268 518.222404 
L 497.633343 517.295238 
L 498.842195 516.376046 
L 500.053569 515.464098 
L 501.267248 514.558782 
L 502.483052 513.659598 
L 503.700828 512.766144 
L 504.920455 511.878114 
L 506.141835 510.995286 
L 507.364892 510.117515 
L 508.589569 509.244728 
L 509.815827 508.376916 
L 511.043644 507.51413 
L 512.273007 506.656468 
L 513.503917 505.804077 
L 514.736386 504.957144 
L 515.970431 504.115888 
L 517.206076 503.280557 
L 518.44335 502.451422 
L 519.682287 501.628772 
L 520.92292 500.812906 
L 522.165284 500.004131 
L 523.409413 499.202754 
L 524.65534 498.409077 
L 525.903095 497.623393 
L 527.152703 496.845976 
L 528.404186 496.077079 
L 529.657559 495.316927 
L 530.912831 494.565708 
L 532.170006 493.82357 
L 533.429079 493.09061 
L 534.690037 492.366872 
L 535.952863 491.652331 
L 537.217528 490.946894 
L 538.483998 490.250386 
L 539.752232 489.562539 
L 541.02218 488.882988 
L 542.293787 488.211257 
L 543.566992 487.546747 
L 544.841729 486.888724 
L 546.117925 486.236311 
L 547.395507 485.588467 
L 548.67491 484.946515 
L 549.956511 484.311644 
L 551.240629 483.684917 
L 552.527529 483.067284 
L 553.817428 482.459587 
L 555.110498 481.862568 
L 556.406872 481.276876 
L 557.706644 480.703075 
L 559.009873 480.141645 
L 560.31659 479.592993 
L 561.626797 479.057453 
L 562.940473 478.535292 
L 564.257573 478.026717 
L 565.578034 477.531875 
L 566.901777 477.050857 
L 568.228706 476.583706 
L 569.558714 476.130416 
L 570.891683 475.690935 
L 572.227487 475.265173 
L 573.56599 474.853 
L 574.907054 474.454253 
L 576.250533 474.068736 
L 577.596281 473.696225 
L 578.944148 473.336469 
L 580.293984 472.989195 
L 581.645638 472.654112 
L 582.998962 472.330909 
L 584.353809 472.019263 
L 585.710032 471.718838 
L 587.06749 471.429293 
L 588.426046 471.150279 
L 589.785564 470.881447 
L 591.145915 470.622447 
L 592.506975 470.372935 
L 593.868624 470.132573 
L 595.23075 469.901036 
L 596.593243 469.67801 
L 597.956005 469.463201 
L 599.318939 469.256336 
L 600.681958 469.057165 
L 602.044983 468.865469 
L 603.407939 468.681061 
L 604.770762 468.503793 
L 606.133393 468.333556 
L 607.495783 468.17029 
L 608.85789 468.013986 
L 610.219682 467.864692 
L 611.581134 467.72252 
L 612.942232 467.587649 
L 614.302969 467.460337 
L 615.663349 467.340922 
L 617.023385 467.229834 
L 618.383099 467.127603 
L 619.742523 467.034865 
L 621.101699 466.952376 
L 622.460676 466.88102 
L 623.819515 466.821823 
L 625.178281 466.775961 
L 626.537049 466.744781 
" style="fill:none;stroke:#000000;stroke-linecap:square;stroke-width:1.5;"/>
   </g>
   <g id="line2d_25">
    <path clip-path="url(#pb496dd0a0d)" d="M 626.566538 472.61442 
L 680.690263 471.914752 
L 688.694067 471.595538 
L 695.092869 471.167498 
L 701.483332 470.523536 
L 706.266503 469.862609 
L 711.036671 469.020992 
L 715.788252 467.974335 
L 720.514364 466.700021 
L 725.206884 465.177933 
L 729.856626 463.391217 
L 734.453636 461.326992 
L 738.987629 458.976998 
L 743.448562 456.338138 
L 747.82731 453.41289 
L 752.116442 450.209571 
L 756.311033 446.742403 
L 760.409288 443.030981 
L 764.412711 439.098921 
L 768.32597 434.972414 
L 773.416638 429.215467 
L 778.384217 423.226967 
L 784.463331 415.510022 
L 792.830091 404.461992 
L 801.138286 393.317204 
L 801.138286 393.317204 
" style="fill:none;stroke:#000000;stroke-dasharray:5.55,2.4;stroke-dashoffset:0;stroke-width:1.5;"/>
   </g>
   <g id="line2d_26">
    <path clip-path="url(#pb496dd0a0d)" d="M 626.50756 460.875143 
L 680.536243 460.177368 
L 688.410438 459.863454 
L 694.653573 459.445939 
L 700.838557 458.822837 
L 706.957479 457.939821 
L 711.498021 457.075259 
L 715.992201 456.014182 
L 720.435358 454.737807 
L 724.822486 453.229738 
L 729.148404 451.4764 
L 733.408036 449.467406 
L 737.596776 447.195851 
L 741.71096 444.658513 
L 745.748413 441.855993 
L 749.709069 438.79277 
L 753.595221 435.477437 
L 757.410942 431.922992 
L 761.161928 428.146217 
L 764.855476 424.166816 
L 769.706036 418.583751 
L 774.493234 412.735033 
L 780.424667 405.138152 
L 789.886224 392.577906 
L 795.813276 384.62107 
L 795.813276 384.62107 
" style="fill:none;stroke:#0000ff;stroke-dasharray:5.55,2.4;stroke-dashoffset:0;stroke-width:1.5;"/>
   </g>
   <g id="line2d_27">
    <path clip-path="url(#pb496dd0a0d)" d="M 626.625516 484.353696 
L 680.844282 483.652137 
L 688.977696 483.327621 
L 695.532164 482.889057 
L 702.128108 482.224235 
L 707.098599 481.537349 
L 712.083903 480.65769 
L 717.076933 479.557757 
L 722.068449 478.211787 
L 727.047115 476.596795 
L 731.999701 474.693626 
L 736.911449 472.488006 
L 741.766601 469.97151 
L 746.549104 467.142409 
L 751.243445 464.006346 
L 755.8356 460.57677 
L 760.31417 456.874963 
L 764.672032 452.928554 
L 768.907049 448.769163 
L 773.021776 444.430344 
L 778.332999 438.424289 
L 783.467387 432.234952 
L 789.685514 424.341871 
L 798.141025 413.176986 
L 806.463296 402.013338 
L 806.463296 402.013338 
" style="fill:none;stroke:#ff0000;stroke-dasharray:5.55,2.4;stroke-dashoffset:0;stroke-width:1.5;"/>
   </g>
   <g id="line2d_28">
    <path clip-path="url(#pb496dd0a0d)" d="M 626.537049 466.744781 
L 628.122352 466.727312 
L 629.70774 466.726734 
L 631.293201 466.740825 
L 632.878726 466.767511 
L 634.464304 466.804842 
L 636.049927 466.850977 
L 637.635585 466.904161 
L 639.22127 466.96271 
L 640.806974 467.024994 
L 642.392688 467.08942 
L 643.978405 467.154416 
L 645.564118 467.218416 
L 647.149817 467.279845 
L 648.735496 467.337102 
L 650.321145 467.388543 
L 651.906756 467.432466 
L 653.492321 467.467096 
L 655.07783 467.490562 
L 656.663272 467.500884 
L 658.248638 467.495949 
L 659.833893 467.473484 
L 661.418975 467.435126 
L 663.0038 467.382297 
L 664.588281 467.316213 
L 666.172325 467.237899 
L 667.755835 467.148205 
L 669.338707 467.047821 
L 670.920831 466.937288 
L 672.502089 466.817011 
L 674.082356 466.687269 
L 675.661499 466.54823 
L 677.239377 466.399954 
L 678.815843 466.242408 
L 680.390742 466.075472 
L 681.963911 465.898947 
L 683.535182 465.712565 
L 685.104377 465.515993 
L 686.671315 465.308844 
L 688.235805 465.090681 
L 689.797652 464.861024 
L 691.356654 464.619356 
L 692.912601 464.365132 
L 694.46528 464.09778 
L 696.014471 463.816709 
L 697.559949 463.521315 
L 699.101482 463.210987 
L 700.638838 462.885107 
L 702.171776 462.543063 
L 703.700056 462.184246 
L 705.22343 461.80806 
L 706.741655 461.413924 
L 708.254481 461.00128 
L 709.761662 460.56959 
L 711.262953 460.11835 
L 712.758112 459.647085 
L 714.246902 459.15536 
L 715.729094 458.642781 
L 717.204467 458.108998 
L 718.672812 457.55371 
L 720.133935 456.976671 
L 721.587659 456.377689 
L 723.033826 455.756633 
L 724.472306 455.113436 
L 725.902992 454.448098 
L 727.325812 453.760688 
L 728.740731 453.051351 
L 730.147754 452.320309 
L 731.546933 451.567866 
L 732.938371 450.79441 
L 734.322231 450.000419 
L 735.698739 449.186463 
L 737.068192 448.35321 
L 738.430966 447.501431 
L 739.78752 446.632005 
L 741.138409 445.745923 
L 742.48429 444.8443 
L 743.825929 443.928376 
L 745.164213 442.999531 
L 746.500161 442.059293 
L 747.834928 441.109348 
L 749.169823 440.151558 
L 750.504699 439.183711 
L 751.839394 438.203896 
L 753.173734 437.21049 
L 754.507532 436.202129 
L 755.840597 435.17769 
L 757.172734 434.136272 
L 758.503746 433.077178 
L 759.833443 431.999894 
L 761.161637 430.904074 
L 762.488148 429.789527 
L 763.812804 428.656194 
L 765.135442 427.504141 
L 766.455908 426.333537 
L 767.77406 425.144647 
L 769.08976 423.937812 
L 770.402883 422.713439 
L 771.713306 421.471989 
L 773.020911 420.213959 
L 774.325584 418.939876 
L 775.627207 417.650281 
L 776.925659 416.345714 
L 778.220813 415.026708 
L 779.512527 413.693772 
L 780.800647 412.347378 
L 782.084996 410.987954 
L 783.365373 409.615864 
L 784.641548 408.231402 
L 785.913253 406.834773 
L 787.180179 405.426085 
L 788.44197 404.005331 
L 789.698215 402.572378 
L 790.948438 401.12695 
L 792.192094 399.668614 
L 793.42856 398.196767 
L 794.65712 396.710617 
L 795.876959 395.209168 
L 797.08715 393.691204 
L 798.286636 392.155271 
L 799.47422 390.599663 
" style="fill:none;stroke:#000000;stroke-linecap:square;stroke-width:1.5;"/>
   </g>
   <g id="line2d_29">
    <path clip-path="url(#pb496dd0a0d)" d="M 801.138286 393.317204 
L 861.677358 311.830447 
L 869.652817 300.65247 
L 876.15461 291.116783 
L 881.218504 283.287953 
L 886.123158 275.24006 
L 889.675314 269.040287 
L 893.101682 262.687225 
L 896.386482 256.172313 
L 899.51432 249.490199 
L 902.47065 242.639041 
L 905.242291 235.620647 
L 907.818012 228.440456 
L 910.189143 221.107333 
L 912.350209 213.633178 
L 914.299554 206.032373 
L 916.039947 198.321072 
L 917.579123 190.516402 
L 918.930234 182.635621 
L 920.471532 172.037656 
L 921.765691 161.367124 
L 923.128265 147.966407 
L 924.765554 129.149116 
L 926.084723 113.004249 
L 926.084723 113.004249 
" style="fill:none;stroke:#000000;stroke-dasharray:5.55,2.4;stroke-dashoffset:0;stroke-width:1.5;"/>
   </g>
   <g id="line2d_30">
    <path clip-path="url(#pb496dd0a0d)" d="M 795.813276 384.62107 
L 856.280085 303.232585 
L 864.143228 292.212311 
L 870.501954 282.886744 
L 875.419044 275.285081 
L 880.150717 267.521283 
L 883.558541 261.573538 
L 886.830785 255.506376 
L 889.954617 249.310849 
L 892.917944 242.980317 
L 895.709733 236.510592 
L 898.320386 229.899955 
L 900.742141 223.149034 
L 902.96951 216.260543 
L 904.999733 209.238875 
L 906.833251 202.089586 
L 908.47418 194.818766 
L 909.930803 187.432366 
L 911.215954 179.935863 
L 912.692723 169.780259 
L 913.944432 159.458383 
L 915.276599 146.354576 
L 916.897619 127.721869 
L 918.214901 111.6 
L 918.214901 111.6 
" style="fill:none;stroke:#0000ff;stroke-dasharray:5.55,2.4;stroke-dashoffset:0;stroke-width:1.5;"/>
   </g>
   <g id="line2d_31">
    <path clip-path="url(#pb496dd0a0d)" d="M 806.463296 402.013338 
L 867.074631 320.428309 
L 875.162407 309.092629 
L 881.807267 299.346821 
L 887.017964 291.290825 
L 892.095598 282.958838 
L 895.792086 276.507036 
L 899.372578 269.868075 
L 902.818346 263.033777 
L 906.110697 256.000081 
L 909.231566 248.767489 
L 912.164196 241.341339 
L 914.893883 233.731878 
L 917.408776 225.954122 
L 919.700684 218.027482 
L 921.765858 209.975161 
L 923.605713 201.823377 
L 925.227443 193.600438 
L 926.644513 185.335379 
L 927.876612 177.054785 
L 929.274467 166.026639 
L 930.452473 155.045092 
L 931.951161 138.696084 
L 933.954545 114.408497 
L 933.954545 114.408497 
" style="fill:none;stroke:#ff0000;stroke-dasharray:5.55,2.4;stroke-dashoffset:0;stroke-width:1.5;"/>
   </g>
   <g id="line2d_32">
    <path clip-path="url(#pb496dd0a0d)" d="M 799.47422 390.599663 
L 804.902905 383.487593 
L 811.855796 374.870286 
L 823.147066 361.354738 
L 832.992733 349.472791 
L 838.519649 342.521139 
L 843.909921 335.34636 
L 849.15773 327.939706 
L 855.571015 318.449741 
L 861.843825 308.758173 
L 867.963053 298.879011 
L 872.721942 290.831572 
L 877.329456 282.641428 
L 881.753546 274.293708 
L 885.960755 265.775721 
L 888.954254 259.270461 
L 891.795093 252.663734 
L 894.472771 245.956688 
L 896.979429 239.152676 
L 899.3107 232.257027 
L 901.466655 225.276621 
L 903.452879 218.219265 
L 905.859681 208.703425 
L 908.040728 199.081423 
L 911.089162 184.470985 
L 914.007544 169.573128 
L 916.256148 156.872438 
L 918.303308 143.94174 
L 920.124337 130.839974 
L 921.376358 120.270754 
L 922.149812 112.302124 
L 922.149812 112.302124 
" style="fill:none;stroke:#000000;stroke-linecap:square;stroke-width:1.5;"/>
   </g>
   <g id="patch_3">
    <path d="M 135 640.8 
L 135 86.4 
" style="fill:none;stroke:#000000;stroke-linecap:square;stroke-linejoin:miter;stroke-width:0.8;"/>
   </g>
   <g id="patch_4">
    <path d="M 972 640.8 
L 972 86.4 
" style="fill:none;stroke:#000000;stroke-linecap:square;stroke-linejoin:miter;stroke-width:0.8;"/>
   </g>
   <g id="patch_5">
    <path d="M 135 640.8 
L 972 640.8 
" style="fill:none;stroke:#000000;stroke-linecap:square;stroke-linejoin:miter;stroke-width:0.8;"/>
   </g>
   <g id="patch_6">
    <path d="M 135 86.4 
L 972 86.4 
" style="fill:none;stroke:#000000;stroke-linecap:square;stroke-linejoin:miter;stroke-width:0.8;"/>
   </g>
  </g>
 </g>
 <defs>
  <clipPath id="pb496dd0a0d">
   <rect height="554.4" width="837" x="135" y="86.4"/>
  </clipPath>
 </defs>
</svg>
