<?xml version="1.0" encoding="utf-8" standalone="no"?>
<!DOCTYPE svg PUBLIC "-//W3C//DTD SVG 1.1//EN"
  "http://www.w3.org/Graphics/SVG/1.1/DTD/svg11.dtd">
<!-- Created with matplotlib (https://matplotlib.org/) -->
<svg height="720pt" version="1.1" viewBox="0 0 1080 720" width="1080pt" xmlns="http://www.w3.org/2000/svg" xmlns:xlink="http://www.w3.org/1999/xlink">
 <metadata>
  <rdf:RDF xmlns:cc="http://creativecommons.org/ns#" xmlns:dc="http://purl.org/dc/elements/1.1/" xmlns:rdf="http://www.w3.org/1999/02/22-rdf-syntax-ns#">
   <cc:Work>
    <dc:type rdf:resource="http://purl.org/dc/dcmitype/StillImage"/>
    <dc:date>2021-02-19T12:49:11.668122</dc:date>
    <dc:format>image/svg+xml</dc:format>
    <dc:creator>
     <cc:Agent>
      <dc:title>Matplotlib v3.3.3, https://matplotlib.org/</dc:title>
     </cc:Agent>
    </dc:creator>
   </cc:Work>
  </rdf:RDF>
 </metadata>
 <defs>
  <style type="text/css">*{stroke-linecap:butt;stroke-linejoin:round;}</style>
 </defs>
 <g id="figure_1">
  <g id="patch_1">
   <path d="M 0 720 
L 1080 720 
L 1080 0 
L 0 0 
z
" style="fill:#ffffff;"/>
  </g>
  <g id="axes_1">
   <g id="patch_2">
    <path d="M 135 640.8 
L 972 640.8 
L 972 86.4 
L 135 86.4 
z
" style="fill:#ffffff;"/>
   </g>
   <g id="matplotlib.axis_1">
    <g id="xtick_1">
     <g id="line2d_1">
      <defs>
       <path d="M 0 0 
L 0 3.5 
" id="mb19a42e9b6" style="stroke:#000000;stroke-width:0.8;"/>
      </defs>
      <g>
       <use style="stroke:#000000;stroke-width:0.8;" x="150.435867" xlink:href="#mb19a42e9b6" y="640.8"/>
      </g>
     </g>
     <g id="text_1">
      <!-- −75 -->
      <g transform="translate(139.883523 655.398438)scale(0.1 -0.1)">
       <defs>
        <path d="M 10.59375 35.5 
L 73.1875 35.5 
L 73.1875 27.203125 
L 10.59375 27.203125 
z
" id="DejaVuSans-8722"/>
        <path d="M 8.203125 72.90625 
L 55.078125 72.90625 
L 55.078125 68.703125 
L 28.609375 0 
L 18.3125 0 
L 43.21875 64.59375 
L 8.203125 64.59375 
z
" id="DejaVuSans-55"/>
        <path d="M 10.796875 72.90625 
L 49.515625 72.90625 
L 49.515625 64.59375 
L 19.828125 64.59375 
L 19.828125 46.734375 
Q 21.96875 47.46875 24.109375 47.828125 
Q 26.265625 48.1875 28.421875 48.1875 
Q 40.625 48.1875 47.75 41.5 
Q 54.890625 34.8125 54.890625 23.390625 
Q 54.890625 11.625 47.5625 5.09375 
Q 40.234375 -1.421875 26.90625 -1.421875 
Q 22.3125 -1.421875 17.546875 -0.640625 
Q 12.796875 0.140625 7.71875 1.703125 
L 7.71875 11.625 
Q 12.109375 9.234375 16.796875 8.0625 
Q 21.484375 6.890625 26.703125 6.890625 
Q 35.15625 6.890625 40.078125 11.328125 
Q 45.015625 15.765625 45.015625 23.390625 
Q 45.015625 31 40.078125 35.4375 
Q 35.15625 39.890625 26.703125 39.890625 
Q 22.75 39.890625 18.8125 39.015625 
Q 14.890625 38.140625 10.796875 36.28125 
z
" id="DejaVuSans-53"/>
       </defs>
       <use xlink:href="#DejaVuSans-8722"/>
       <use x="83.789062" xlink:href="#DejaVuSans-55"/>
       <use x="147.412109" xlink:href="#DejaVuSans-53"/>
      </g>
     </g>
    </g>
    <g id="xtick_2">
     <g id="line2d_2">
      <g>
       <use style="stroke:#000000;stroke-width:0.8;" x="251.584915" xlink:href="#mb19a42e9b6" y="640.8"/>
      </g>
     </g>
     <g id="text_2">
      <!-- −50 -->
      <g transform="translate(241.032571 655.398438)scale(0.1 -0.1)">
       <defs>
        <path d="M 31.78125 66.40625 
Q 24.171875 66.40625 20.328125 58.90625 
Q 16.5 51.421875 16.5 36.375 
Q 16.5 21.390625 20.328125 13.890625 
Q 24.171875 6.390625 31.78125 6.390625 
Q 39.453125 6.390625 43.28125 13.890625 
Q 47.125 21.390625 47.125 36.375 
Q 47.125 51.421875 43.28125 58.90625 
Q 39.453125 66.40625 31.78125 66.40625 
z
M 31.78125 74.21875 
Q 44.046875 74.21875 50.515625 64.515625 
Q 56.984375 54.828125 56.984375 36.375 
Q 56.984375 17.96875 50.515625 8.265625 
Q 44.046875 -1.421875 31.78125 -1.421875 
Q 19.53125 -1.421875 13.0625 8.265625 
Q 6.59375 17.96875 6.59375 36.375 
Q 6.59375 54.828125 13.0625 64.515625 
Q 19.53125 74.21875 31.78125 74.21875 
z
" id="DejaVuSans-48"/>
       </defs>
       <use xlink:href="#DejaVuSans-8722"/>
       <use x="83.789062" xlink:href="#DejaVuSans-53"/>
       <use x="147.412109" xlink:href="#DejaVuSans-48"/>
      </g>
     </g>
    </g>
    <g id="xtick_3">
     <g id="line2d_3">
      <g>
       <use style="stroke:#000000;stroke-width:0.8;" x="352.733964" xlink:href="#mb19a42e9b6" y="640.8"/>
      </g>
     </g>
     <g id="text_3">
      <!-- −25 -->
      <g transform="translate(342.18162 655.398438)scale(0.1 -0.1)">
       <defs>
        <path d="M 19.1875 8.296875 
L 53.609375 8.296875 
L 53.609375 0 
L 7.328125 0 
L 7.328125 8.296875 
Q 12.9375 14.109375 22.625 23.890625 
Q 32.328125 33.6875 34.8125 36.53125 
Q 39.546875 41.84375 41.421875 45.53125 
Q 43.3125 49.21875 43.3125 52.78125 
Q 43.3125 58.59375 39.234375 62.25 
Q 35.15625 65.921875 28.609375 65.921875 
Q 23.96875 65.921875 18.8125 64.3125 
Q 13.671875 62.703125 7.8125 59.421875 
L 7.8125 69.390625 
Q 13.765625 71.78125 18.9375 73 
Q 24.125 74.21875 28.421875 74.21875 
Q 39.75 74.21875 46.484375 68.546875 
Q 53.21875 62.890625 53.21875 53.421875 
Q 53.21875 48.921875 51.53125 44.890625 
Q 49.859375 40.875 45.40625 35.40625 
Q 44.1875 33.984375 37.640625 27.21875 
Q 31.109375 20.453125 19.1875 8.296875 
z
" id="DejaVuSans-50"/>
       </defs>
       <use xlink:href="#DejaVuSans-8722"/>
       <use x="83.789062" xlink:href="#DejaVuSans-50"/>
       <use x="147.412109" xlink:href="#DejaVuSans-53"/>
      </g>
     </g>
    </g>
    <g id="xtick_4">
     <g id="line2d_4">
      <g>
       <use style="stroke:#000000;stroke-width:0.8;" x="453.883012" xlink:href="#mb19a42e9b6" y="640.8"/>
      </g>
     </g>
     <g id="text_4">
      <!-- 0 -->
      <g transform="translate(450.701762 655.398438)scale(0.1 -0.1)">
       <use xlink:href="#DejaVuSans-48"/>
      </g>
     </g>
    </g>
    <g id="xtick_5">
     <g id="line2d_5">
      <g>
       <use style="stroke:#000000;stroke-width:0.8;" x="555.032061" xlink:href="#mb19a42e9b6" y="640.8"/>
      </g>
     </g>
     <g id="text_5">
      <!-- 25 -->
      <g transform="translate(548.669561 655.398438)scale(0.1 -0.1)">
       <use xlink:href="#DejaVuSans-50"/>
       <use x="63.623047" xlink:href="#DejaVuSans-53"/>
      </g>
     </g>
    </g>
    <g id="xtick_6">
     <g id="line2d_6">
      <g>
       <use style="stroke:#000000;stroke-width:0.8;" x="656.18111" xlink:href="#mb19a42e9b6" y="640.8"/>
      </g>
     </g>
     <g id="text_6">
      <!-- 50 -->
      <g transform="translate(649.81861 655.398438)scale(0.1 -0.1)">
       <use xlink:href="#DejaVuSans-53"/>
       <use x="63.623047" xlink:href="#DejaVuSans-48"/>
      </g>
     </g>
    </g>
    <g id="xtick_7">
     <g id="line2d_7">
      <g>
       <use style="stroke:#000000;stroke-width:0.8;" x="757.330158" xlink:href="#mb19a42e9b6" y="640.8"/>
      </g>
     </g>
     <g id="text_7">
      <!-- 75 -->
      <g transform="translate(750.967658 655.398438)scale(0.1 -0.1)">
       <use xlink:href="#DejaVuSans-55"/>
       <use x="63.623047" xlink:href="#DejaVuSans-53"/>
      </g>
     </g>
    </g>
    <g id="xtick_8">
     <g id="line2d_8">
      <g>
       <use style="stroke:#000000;stroke-width:0.8;" x="858.479207" xlink:href="#mb19a42e9b6" y="640.8"/>
      </g>
     </g>
     <g id="text_8">
      <!-- 100 -->
      <g transform="translate(848.935457 655.398438)scale(0.1 -0.1)">
       <defs>
        <path d="M 12.40625 8.296875 
L 28.515625 8.296875 
L 28.515625 63.921875 
L 10.984375 60.40625 
L 10.984375 69.390625 
L 28.421875 72.90625 
L 38.28125 72.90625 
L 38.28125 8.296875 
L 54.390625 8.296875 
L 54.390625 0 
L 12.40625 0 
z
" id="DejaVuSans-49"/>
       </defs>
       <use xlink:href="#DejaVuSans-49"/>
       <use x="63.623047" xlink:href="#DejaVuSans-48"/>
       <use x="127.246094" xlink:href="#DejaVuSans-48"/>
      </g>
     </g>
    </g>
    <g id="xtick_9">
     <g id="line2d_9">
      <g>
       <use style="stroke:#000000;stroke-width:0.8;" x="959.628255" xlink:href="#mb19a42e9b6" y="640.8"/>
      </g>
     </g>
     <g id="text_9">
      <!-- 125 -->
      <g transform="translate(950.084505 655.398438)scale(0.1 -0.1)">
       <use xlink:href="#DejaVuSans-49"/>
       <use x="63.623047" xlink:href="#DejaVuSans-50"/>
       <use x="127.246094" xlink:href="#DejaVuSans-53"/>
      </g>
     </g>
    </g>
   </g>
   <g id="matplotlib.axis_2">
    <g id="ytick_1">
     <g id="line2d_10">
      <defs>
       <path d="M 0 0 
L -3.5 0 
" id="mc9c2194e5b" style="stroke:#000000;stroke-width:0.8;"/>
      </defs>
      <g>
       <use style="stroke:#000000;stroke-width:0.8;" x="135" xlink:href="#mc9c2194e5b" y="598.652278"/>
      </g>
     </g>
     <g id="text_10">
      <!-- 0 -->
      <g transform="translate(121.6375 602.451497)scale(0.1 -0.1)">
       <use xlink:href="#DejaVuSans-48"/>
      </g>
     </g>
    </g>
    <g id="ytick_2">
     <g id="line2d_11">
      <g>
       <use style="stroke:#000000;stroke-width:0.8;" x="135" xlink:href="#mc9c2194e5b" y="517.733039"/>
      </g>
     </g>
     <g id="text_11">
      <!-- 20 -->
      <g transform="translate(115.275 521.532258)scale(0.1 -0.1)">
       <use xlink:href="#DejaVuSans-50"/>
       <use x="63.623047" xlink:href="#DejaVuSans-48"/>
      </g>
     </g>
    </g>
    <g id="ytick_3">
     <g id="line2d_12">
      <g>
       <use style="stroke:#000000;stroke-width:0.8;" x="135" xlink:href="#mc9c2194e5b" y="436.8138"/>
      </g>
     </g>
     <g id="text_12">
      <!-- 40 -->
      <g transform="translate(115.275 440.613019)scale(0.1 -0.1)">
       <defs>
        <path d="M 37.796875 64.3125 
L 12.890625 25.390625 
L 37.796875 25.390625 
z
M 35.203125 72.90625 
L 47.609375 72.90625 
L 47.609375 25.390625 
L 58.015625 25.390625 
L 58.015625 17.1875 
L 47.609375 17.1875 
L 47.609375 0 
L 37.796875 0 
L 37.796875 17.1875 
L 4.890625 17.1875 
L 4.890625 26.703125 
z
" id="DejaVuSans-52"/>
       </defs>
       <use xlink:href="#DejaVuSans-52"/>
       <use x="63.623047" xlink:href="#DejaVuSans-48"/>
      </g>
     </g>
    </g>
    <g id="ytick_4">
     <g id="line2d_13">
      <g>
       <use style="stroke:#000000;stroke-width:0.8;" x="135" xlink:href="#mc9c2194e5b" y="355.894562"/>
      </g>
     </g>
     <g id="text_13">
      <!-- 60 -->
      <g transform="translate(115.275 359.69378)scale(0.1 -0.1)">
       <defs>
        <path d="M 33.015625 40.375 
Q 26.375 40.375 22.484375 35.828125 
Q 18.609375 31.296875 18.609375 23.390625 
Q 18.609375 15.53125 22.484375 10.953125 
Q 26.375 6.390625 33.015625 6.390625 
Q 39.65625 6.390625 43.53125 10.953125 
Q 47.40625 15.53125 47.40625 23.390625 
Q 47.40625 31.296875 43.53125 35.828125 
Q 39.65625 40.375 33.015625 40.375 
z
M 52.59375 71.296875 
L 52.59375 62.3125 
Q 48.875 64.0625 45.09375 64.984375 
Q 41.3125 65.921875 37.59375 65.921875 
Q 27.828125 65.921875 22.671875 59.328125 
Q 17.53125 52.734375 16.796875 39.40625 
Q 19.671875 43.65625 24.015625 45.921875 
Q 28.375 48.1875 33.59375 48.1875 
Q 44.578125 48.1875 50.953125 41.515625 
Q 57.328125 34.859375 57.328125 23.390625 
Q 57.328125 12.15625 50.6875 5.359375 
Q 44.046875 -1.421875 33.015625 -1.421875 
Q 20.359375 -1.421875 13.671875 8.265625 
Q 6.984375 17.96875 6.984375 36.375 
Q 6.984375 53.65625 15.1875 63.9375 
Q 23.390625 74.21875 37.203125 74.21875 
Q 40.921875 74.21875 44.703125 73.484375 
Q 48.484375 72.75 52.59375 71.296875 
z
" id="DejaVuSans-54"/>
       </defs>
       <use xlink:href="#DejaVuSans-54"/>
       <use x="63.623047" xlink:href="#DejaVuSans-48"/>
      </g>
     </g>
    </g>
    <g id="ytick_5">
     <g id="line2d_14">
      <g>
       <use style="stroke:#000000;stroke-width:0.8;" x="135" xlink:href="#mc9c2194e5b" y="274.975323"/>
      </g>
     </g>
     <g id="text_14">
      <!-- 80 -->
      <g transform="translate(115.275 278.774541)scale(0.1 -0.1)">
       <defs>
        <path d="M 31.78125 34.625 
Q 24.75 34.625 20.71875 30.859375 
Q 16.703125 27.09375 16.703125 20.515625 
Q 16.703125 13.921875 20.71875 10.15625 
Q 24.75 6.390625 31.78125 6.390625 
Q 38.8125 6.390625 42.859375 10.171875 
Q 46.921875 13.96875 46.921875 20.515625 
Q 46.921875 27.09375 42.890625 30.859375 
Q 38.875 34.625 31.78125 34.625 
z
M 21.921875 38.8125 
Q 15.578125 40.375 12.03125 44.71875 
Q 8.5 49.078125 8.5 55.328125 
Q 8.5 64.0625 14.71875 69.140625 
Q 20.953125 74.21875 31.78125 74.21875 
Q 42.671875 74.21875 48.875 69.140625 
Q 55.078125 64.0625 55.078125 55.328125 
Q 55.078125 49.078125 51.53125 44.71875 
Q 48 40.375 41.703125 38.8125 
Q 48.828125 37.15625 52.796875 32.3125 
Q 56.78125 27.484375 56.78125 20.515625 
Q 56.78125 9.90625 50.3125 4.234375 
Q 43.84375 -1.421875 31.78125 -1.421875 
Q 19.734375 -1.421875 13.25 4.234375 
Q 6.78125 9.90625 6.78125 20.515625 
Q 6.78125 27.484375 10.78125 32.3125 
Q 14.796875 37.15625 21.921875 38.8125 
z
M 18.3125 54.390625 
Q 18.3125 48.734375 21.84375 45.5625 
Q 25.390625 42.390625 31.78125 42.390625 
Q 38.140625 42.390625 41.71875 45.5625 
Q 45.3125 48.734375 45.3125 54.390625 
Q 45.3125 60.0625 41.71875 63.234375 
Q 38.140625 66.40625 31.78125 66.40625 
Q 25.390625 66.40625 21.84375 63.234375 
Q 18.3125 60.0625 18.3125 54.390625 
z
" id="DejaVuSans-56"/>
       </defs>
       <use xlink:href="#DejaVuSans-56"/>
       <use x="63.623047" xlink:href="#DejaVuSans-48"/>
      </g>
     </g>
    </g>
    <g id="ytick_6">
     <g id="line2d_15">
      <g>
       <use style="stroke:#000000;stroke-width:0.8;" x="135" xlink:href="#mc9c2194e5b" y="194.056084"/>
      </g>
     </g>
     <g id="text_15">
      <!-- 100 -->
      <g transform="translate(108.9125 197.855303)scale(0.1 -0.1)">
       <use xlink:href="#DejaVuSans-49"/>
       <use x="63.623047" xlink:href="#DejaVuSans-48"/>
       <use x="127.246094" xlink:href="#DejaVuSans-48"/>
      </g>
     </g>
    </g>
    <g id="ytick_7">
     <g id="line2d_16">
      <g>
       <use style="stroke:#000000;stroke-width:0.8;" x="135" xlink:href="#mc9c2194e5b" y="113.136845"/>
      </g>
     </g>
     <g id="text_16">
      <!-- 120 -->
      <g transform="translate(108.9125 116.936064)scale(0.1 -0.1)">
       <use xlink:href="#DejaVuSans-49"/>
       <use x="63.623047" xlink:href="#DejaVuSans-50"/>
       <use x="127.246094" xlink:href="#DejaVuSans-48"/>
      </g>
     </g>
    </g>
   </g>
   <g id="line2d_17">
    <path clip-path="url(#pd267f3ec4a)" d="M 453.883012 598.652278 
L 709.881696 598.555035 
L 722.955762 598.254073 
L 732.752136 597.776392 
L 739.272589 597.288241 
L 745.778167 596.631855 
L 752.260866 595.779448 
L 758.710228 594.704191 
L 765.113207 593.381068 
L 771.454225 591.78776 
L 777.715431 589.905513 
L 783.8772 587.719937 
L 789.918784 585.221493 
L 795.818962 582.405483 
L 801.556683 579.271812 
L 807.111688 575.82466 
L 812.465095 572.072087 
L 817.599922 568.025556 
L 822.501522 563.699416 
L 827.157929 559.110346 
L 831.560102 554.276791 
L 835.702063 549.218393 
L 839.580944 543.955461 
L 843.196942 538.508462 
L 846.553189 532.897584 
L 849.655566 527.142348 
L 852.512458 521.261293 
L 855.134469 515.271732 
L 857.534117 509.189582 
L 859.725512 503.029249 
L 861.724025 496.803592 
L 863.545969 490.52392 
L 865.20828 484.200056 
L 867.440213 474.649458 
L 869.409944 465.041184 
L 871.173776 455.392864 
L 873.295471 442.488435 
L 876.198196 423.087712 
L 878.987706 403.670277 
L 878.987706 403.670277 
" style="fill:none;stroke:#000000;stroke-dasharray:5.55,2.4;stroke-dashoffset:0;stroke-width:1.5;"/>
   </g>
   <g id="line2d_18">
    <path clip-path="url(#pd267f3ec4a)" d="M 453.883012 584.491411 
L 709.702664 584.3953 
L 722.450887 584.102209 
L 731.858192 583.64377 
L 738.044646 583.180714 
L 744.155588 582.564254 
L 750.184168 581.771684 
L 756.122916 580.781692 
L 761.96367 579.574889 
L 767.697641 578.134254 
L 773.315616 576.445506 
L 778.80816 574.497419 
L 784.165177 572.282168 
L 789.375712 569.795382 
L 794.428364 567.035913 
L 799.311731 564.005573 
L 804.014841 560.708841 
L 808.527541 557.15256 
L 812.840842 553.345604 
L 816.947214 549.298545 
L 820.840817 545.023301 
L 824.517679 540.53279 
L 827.975807 535.840601 
L 831.215244 530.960677 
L 834.238068 525.907024 
L 837.048348 520.693458 
L 839.652049 515.33339 
L 842.056906 509.839651 
L 844.272266 504.224356 
L 846.308903 498.498825 
L 848.178814 492.67353 
L 849.895009 486.758093 
L 852.211408 477.73496 
L 854.261708 468.555182 
L 856.09546 459.242106 
L 858.287287 446.653248 
L 860.767708 430.705206 
L 864.96982 401.663032 
L 864.96982 401.663032 
" style="fill:none;stroke:#0000ff;stroke-dasharray:5.55,2.4;stroke-dashoffset:0;stroke-width:1.5;"/>
   </g>
   <g id="line2d_19">
    <path clip-path="url(#pd267f3ec4a)" d="M 453.883012 612.813145 
L 710.060727 612.71477 
L 723.460637 612.405937 
L 733.64608 611.909014 
L 740.500532 611.395767 
L 747.400746 610.699455 
L 754.337565 609.787213 
L 761.297539 608.62669 
L 768.262743 607.187247 
L 775.210808 605.441266 
L 782.115245 603.365519 
L 788.94624 600.942455 
L 795.672391 598.160819 
L 802.262213 595.015585 
L 808.685003 591.50771 
L 814.911645 587.643747 
L 820.915349 583.435333 
L 826.672303 578.898552 
L 832.162202 574.053227 
L 837.368645 568.922146 
L 842.279387 563.53028 
L 846.886447 557.903997 
L 851.186082 552.07032 
L 855.17864 546.056247 
L 858.86831 539.888145 
L 862.262785 533.591238 
L 865.372867 527.189195 
L 868.212031 520.703814 
L 870.795968 514.154808 
L 873.142121 507.559674 
L 875.269236 500.933653 
L 877.196928 494.289748 
L 878.945281 487.638798 
L 881.275644 477.667902 
L 883.314659 467.722426 
L 885.125788 457.815985 
L 887.28593 444.678682 
L 890.212556 425.119422 
L 893.005591 405.677522 
L 893.005591 405.677522 
" style="fill:none;stroke:#ff0000;stroke-dasharray:5.55,2.4;stroke-dashoffset:0;stroke-width:1.5;"/>
   </g>
   <g id="line2d_20">
    <path clip-path="url(#pd267f3ec4a)" d="M 453.883012 604.316625 
L 473.30363 604.213651 
L 499.197786 603.817395 
L 538.039021 602.967981 
L 586.590564 601.687572 
L 618.95826 600.637726 
L 641.615647 599.676432 
L 657.799494 598.761971 
L 670.746573 597.801016 
L 680.456881 596.88217 
L 690.165679 595.74887 
L 703.086421 593.969835 
L 715.918314 591.921972 
L 725.426494 590.194186 
L 734.783224 588.275478 
L 743.942329 586.143946 
L 752.866902 583.790645 
L 761.54008 581.228113 
L 769.978842 578.495851 
L 780.973815 574.666537 
L 786.387961 572.605012 
L 791.746248 570.384205 
L 797.043346 567.968494 
L 802.270415 565.329714 
L 807.415805 562.446603 
L 812.465859 559.304309 
L 817.405747 555.893908 
L 822.220295 552.211907 
L 826.894745 548.259709 
L 831.415447 544.043041 
L 835.770423 539.571353 
L 839.949824 534.857192 
L 843.946239 529.915582 
L 847.754887 524.763408 
L 851.373677 519.418841 
L 854.803147 513.900795 
L 858.046306 508.228448 
L 861.108383 502.42082 
L 863.996505 496.496408 
L 866.719308 490.472895 
L 869.286508 484.3669 
L 871.708436 478.19379 
L 875.091706 468.838406 
L 878.20458 459.4036 
L 881.074038 449.921363 
L 883.716711 440.414389 
L 886.134261 430.895268 
L 888.3082 421.365623 
L 890.193748 411.815352 
L 891.253356 405.426616 
L 891.253356 405.426616 
" style="fill:none;stroke:#000000;stroke-linecap:square;stroke-width:3;"/>
   </g>
   <g id="line2d_21">
    <path clip-path="url(#pd267f3ec4a)" d="M 878.987706 403.670277 
L 890.640346 321.711942 
L 891.814163 311.974239 
L 892.528697 304.652946 
L 893.03767 297.314669 
L 893.279347 289.962966 
L 893.260709 285.059117 
L 893.076611 280.158767 
L 892.709225 275.268824 
L 892.141871 270.398118 
L 891.359483 265.557386 
L 890.349082 260.759147 
L 889.100235 256.017455 
L 887.605479 251.347516 
L 885.860679 246.765181 
L 883.865247 242.286337 
L 881.622055 237.926324 
L 879.137117 233.699421 
L 876.419202 229.618402 
L 873.479398 225.694168 
L 870.330652 221.935463 
L 866.987304 218.348684 
L 863.464627 214.937776 
L 859.778398 211.704218 
L 855.944502 208.647078 
L 851.97859 205.763141 
L 847.895785 203.047085 
L 843.710458 200.491704 
L 839.43605 198.088161 
L 835.084964 195.826249 
L 828.438972 192.674019 
L 821.679041 189.773677 
L 814.833162 187.082045 
L 805.610786 183.743485 
L 793.988918 179.838779 
L 775.304941 173.861764 
L 770.629746 172.380651 
L 770.629746 172.380651 
" style="fill:none;stroke:#000000;stroke-dasharray:5.55,2.4;stroke-dashoffset:0;stroke-width:1.5;"/>
   </g>
   <g id="line2d_22">
    <path clip-path="url(#pd267f3ec4a)" d="M 864.96982 401.663032 
L 876.59773 319.885718 
L 877.736896 310.437786 
L 878.418596 303.454944 
L 878.896353 296.570815 
L 879.119482 289.794494 
L 879.039471 283.136474 
L 878.7956 278.769794 
L 878.385425 274.465944 
L 877.798542 270.230055 
L 877.026041 266.067749 
L 876.060613 261.984994 
L 874.896613 257.98789 
L 873.530081 254.082404 
L 871.958749 250.27418 
L 870.18219 246.568868 
L 868.201819 242.972246 
L 866.020722 239.489937 
L 863.643456 236.127118 
L 861.075857 232.88827 
L 858.324828 229.776963 
L 855.398141 226.795683 
L 852.304233 223.945693 
L 849.052013 221.226949 
L 845.650683 218.638051 
L 842.109575 216.176231 
L 838.438015 213.837389 
L 834.645203 211.616155 
L 828.748237 208.490216 
L 822.627799 205.587595 
L 816.311518 202.877869 
L 809.82553 200.327941 
L 800.956417 197.117602 
L 789.593867 193.300342 
L 771.027461 187.361146 
L 766.353416 185.880397 
L 766.353416 185.880397 
" style="fill:none;stroke:#0000ff;stroke-dasharray:5.55,2.4;stroke-dashoffset:0;stroke-width:1.5;"/>
   </g>
   <g id="line2d_23">
    <path clip-path="url(#pd267f3ec4a)" d="M 893.005591 405.677522 
L 904.682961 323.538166 
L 905.891431 313.510691 
L 906.638798 305.850949 
L 907.178986 298.058524 
L 907.439212 290.131439 
L 907.418752 284.776305 
L 907.215602 279.371954 
L 906.806465 273.927941 
L 906.169076 268.457073 
L 905.282976 262.975434 
L 904.130328 257.502247 
L 902.696748 252.059554 
L 900.972111 246.671697 
L 898.951271 241.364575 
L 896.634419 236.164376 
L 894.026784 231.096036 
L 891.138124 226.182377 
L 887.982131 221.443512 
L 884.575757 216.896386 
L 880.938501 212.554435 
L 877.09168 208.427407 
L 873.057712 204.521305 
L 868.859453 200.838466 
L 864.519599 197.377745 
L 860.060163 194.134799 
L 855.502048 191.102424 
L 850.864718 188.270955 
L 846.165951 185.628683 
L 841.42169 183.162282 
L 834.250145 179.760444 
L 827.046564 176.669485 
L 819.840794 173.836148 
L 810.265154 170.369368 
L 798.383968 166.377216 
L 779.58242 160.362382 
L 774.906076 158.880904 
L 774.906076 158.880904 
" style="fill:none;stroke:#ff0000;stroke-dasharray:5.55,2.4;stroke-dashoffset:0;stroke-width:1.5;"/>
   </g>
   <g id="line2d_24">
    <path clip-path="url(#pd267f3ec4a)" d="M 891.253356 405.426616 
L 891.597455 403.02355 
L 891.919397 400.617311 
L 892.220736 398.208122 
L 892.50282 395.796176 
L 892.766804 393.381638 
L 893.013661 390.964648 
L 893.244195 388.54532 
L 893.459046 386.123747 
L 893.658695 383.699997 
L 893.843473 381.274117 
L 894.013564 378.846135 
L 894.169001 376.416054 
L 894.309674 373.983859 
L 894.435324 371.549512 
L 894.54554 369.112956 
L 894.63976 366.674109 
L 894.71726 364.232869 
L 894.77715 361.789106 
L 894.818362 359.342669 
L 894.839643 356.893378 
L 894.83954 354.441025 
L 894.816386 351.985371 
L 894.768284 349.526145 
L 894.693087 347.063039 
L 894.588373 344.595558 
L 894.457105 342.123749 
L 894.30181 339.647619 
L 894.124567 337.167306 
L 893.927036 334.683093 
L 893.710494 332.195409 
L 893.475865 329.704831 
L 893.223752 327.212083 
L 892.954467 324.718033 
L 892.66806 322.223685 
L 892.364352 319.730178 
L 892.042963 317.238778 
L 891.703348 314.750866 
L 891.344823 312.267937 
L 890.966599 309.791582 
L 890.567813 307.323487 
L 890.147564 304.865415 
L 889.70494 302.419197 
L 889.239055 299.986715 
L 888.749076 297.569892 
L 888.23426 295.170668 
L 887.693982 292.790985 
L 887.127764 290.432763 
L 886.535306 288.097874 
L 885.91651 285.788117 
L 885.271507 283.505186 
L 884.600678 281.250632 
L 883.904676 279.025832 
L 883.184438 276.831942 
L 882.441202 274.669857 
L 881.676513 272.54016 
L 880.892229 270.443072 
L 880.090523 268.3784 
L 879.273875 266.34548 
L 878.445065 264.343116 
L 877.607164 262.369523 
L 876.763508 260.422261 
L 875.917687 258.498179 
L 875.073511 256.593347 
L 874.234994 254.702991 
L 873.406322 252.821446 
L 872.580364 250.947069 
L 871.750587 249.078579 
L 870.911021 247.215045 
L 870.056231 245.355872 
L 869.181291 243.500774 
L 868.281759 241.649754 
L 867.353661 239.803071 
L 866.393468 237.961216 
L 865.398084 236.124882 
L 864.364819 234.294931 
L 863.291384 232.472366 
L 862.175865 230.658304 
L 861.016707 228.853942 
L 859.812701 227.060538 
L 858.562962 225.279375 
L 857.266908 223.511749 
L 855.924247 221.758936 
L 854.534954 220.02218 
L 853.099252 218.302672 
L 851.617592 216.601535 
L 850.090634 214.919809 
L 848.519227 213.258445 
L 846.904389 211.618293 
L 845.247287 210.000094 
L 843.549223 208.40448 
L 841.811608 206.831969 
L 840.035952 205.282966 
L 838.223843 203.757765 
L 836.376931 202.25655 
L 834.496914 200.779405 
L 832.58552 199.326314 
L 830.6445 197.897176 
L 828.675605 196.491809 
L 826.680585 195.109961 
L 824.661166 193.751325 
L 822.619047 192.415547 
L 820.555888 191.102241 
L 818.473296 189.811002 
L 816.37282 188.541422 
L 814.25594 187.293103 
L 812.124059 186.065673 
L 809.978495 184.858803 
L 807.820468 183.672222 
L 805.651098 182.505735 
L 803.471395 181.35924 
L 801.282246 180.232745 
L 799.084413 179.126388 
L 796.878522 178.040456 
L 794.665052 176.975404 
L 792.444332 175.931877 
L 790.216528 174.91073 
L 787.981637 173.913054 
L 785.739478 172.940201 
L 783.489686 171.993809 
L 781.231703 171.075833 
L 778.964775 170.188574 
L 776.687946 169.334718 
L 774.400054 168.517373 
L 772.099734 167.740113 
" style="fill:none;stroke:#000000;stroke-linecap:square;stroke-width:3;"/>
   </g>
   <g id="line2d_25">
    <path clip-path="url(#pd267f3ec4a)" d="M 770.629746 172.380651 
L 681.148899 144.133778 
L 667.444005 140.038216 
L 656.4273 136.944148 
L 645.347538 134.084658 
L 636.98925 132.137394 
L 628.586126 130.394123 
L 620.137703 128.886093 
L 611.64626 127.643573 
L 603.117074 126.694958 
L 594.558478 126.065816 
L 588.841843 125.834806 
L 583.121036 125.760859 
L 577.400431 125.848203 
L 571.684706 126.09987 
L 565.978717 126.517578 
L 560.287348 127.10163 
L 554.615349 127.850816 
L 548.967154 128.762339 
L 543.3467 129.831755 
L 537.757257 131.053032 
L 529.436455 133.15313 
L 521.195619 135.548263 
L 513.035124 138.204625 
L 504.951194 141.085912 
L 496.936516 144.154824 
L 486.340467 148.474925 
L 473.200837 154.127078 
L 452.296973 163.444026 
L 444.468724 166.961857 
L 444.468724 166.961857 
" style="fill:none;stroke:#000000;stroke-dasharray:5.55,2.4;stroke-dashoffset:0;stroke-width:1.5;"/>
   </g>
   <g id="line2d_26">
    <path clip-path="url(#pd267f3ec4a)" d="M 766.353416 185.880397 
L 677.003805 157.674396 
L 663.498013 153.63819 
L 652.728555 150.613436 
L 641.983093 147.840044 
L 633.93542 145.965057 
L 625.894823 144.296893 
L 617.85993 142.862569 
L 609.830684 141.687569 
L 601.808496 140.795233 
L 593.796234 140.206153 
L 585.798021 139.937584 
L 580.476127 139.943375 
L 575.164265 140.10053 
L 569.863967 140.410998 
L 564.576616 140.875726 
L 559.303309 141.494605 
L 554.044724 142.266418 
L 548.80098 143.188785 
L 540.962397 144.846409 
L 533.154335 146.817226 
L 525.37337 149.078842 
L 517.614451 151.604621 
L 509.870961 154.364694 
L 502.135095 157.32695 
L 491.818071 161.533486 
L 478.892369 167.093828 
L 458.099504 176.361487 
L 450.273922 179.878119 
L 450.273922 179.878119 
" style="fill:none;stroke:#0000ff;stroke-dasharray:5.55,2.4;stroke-dashoffset:0;stroke-width:1.5;"/>
   </g>
   <g id="line2d_27">
    <path clip-path="url(#pd267f3ec4a)" d="M 774.906076 158.880904 
L 685.293993 130.59316 
L 671.389997 126.438242 
L 660.126044 123.27486 
L 648.711984 120.329271 
L 640.043081 118.309731 
L 631.277429 116.491352 
L 622.415475 114.909616 
L 613.461836 113.599577 
L 604.425652 112.594682 
L 598.362296 112.109522 
L 592.273512 111.781699 
L 586.165371 111.618233 
L 580.044715 111.624927 
L 573.91905 111.806184 
L 567.796408 112.164834 
L 561.68519 112.701975 
L 555.593972 113.416831 
L 549.531309 114.306631 
L 543.505496 115.36652 
L 537.524113 116.589587 
L 531.593496 117.967139 
L 522.803148 120.30063 
L 514.148355 122.920061 
L 505.632599 125.783632 
L 497.252876 128.84848 
L 489.000628 132.072584 
L 478.172982 136.551238 
L 464.863838 142.324813 
L 441.273022 152.872778 
L 438.663526 154.045595 
L 438.663526 154.045595 
" style="fill:none;stroke:#ff0000;stroke-dasharray:5.55,2.4;stroke-dashoffset:0;stroke-width:1.5;"/>
   </g>
   <g id="line2d_28">
    <path clip-path="url(#pd267f3ec4a)" d="M 772.099734 167.740113 
L 769.399785 166.884847 
L 766.682279 166.085006 
L 763.949089 165.334676 
L 761.201932 164.628438 
L 758.442384 163.961315 
L 755.671899 163.32872 
L 752.89182 162.726412 
L 750.103395 162.150453 
L 747.307787 161.597167 
L 744.506089 161.063106 
L 741.699333 160.545014 
L 738.888498 160.039796 
L 736.074526 159.544483 
L 733.258325 159.056208 
L 730.440781 158.572171 
L 727.622767 158.089618 
L 724.805152 157.605807 
L 721.988807 157.117985 
L 719.174617 156.623358 
L 716.36349 156.119065 
L 713.556367 155.602161 
L 710.752895 155.073897 
L 707.952773 154.535489 
L 705.155741 153.988134 
L 702.361573 153.433009 
L 699.57007 152.871284 
L 696.78106 152.304122 
L 693.994393 151.732681 
L 691.209935 151.15812 
L 688.427573 150.5816 
L 685.647204 150.004286 
L 682.868741 149.427345 
L 680.092109 148.851952 
L 677.317244 148.279288 
L 674.544095 147.710535 
L 671.77262 147.146886 
L 669.002788 146.589533 
L 666.234583 146.039674 
L 663.467996 145.498507 
L 660.703033 144.96723 
L 657.939713 144.447041 
L 655.178067 143.93913 
L 652.418141 143.444685 
L 649.659995 142.96488 
L 646.903707 142.500882 
L 644.149367 142.053839 
L 641.397084 141.624885 
L 638.646983 141.215132 
L 635.899206 140.825666 
L 633.153912 140.457547 
L 630.411278 140.111805 
L 627.671494 139.789433 
L 624.934771 139.491388 
L 622.20133 139.218582 
L 619.471408 138.971883 
L 616.745256 138.752109 
L 614.023132 138.560023 
L 611.305306 138.396329 
L 608.59205 138.261671 
L 605.883641 138.156626 
L 603.180355 138.081699 
L 600.482466 138.037321 
L 597.790235 138.023844 
L 595.103914 138.041537 
L 592.423736 138.09058 
L 589.74991 138.17106 
L 587.082614 138.28297 
L 584.421994 138.426196 
L 581.768151 138.600522 
L 579.121137 138.805619 
L 576.480944 139.041038 
L 573.847503 139.30621 
L 571.220666 139.600436 
L 568.600206 139.922882 
L 565.985801 140.27257 
L 563.377028 140.648373 
L 560.773352 141.049003 
L 558.174117 141.473005 
L 555.578533 141.918742 
L 552.985669 142.384387 
L 550.394443 142.867904 
L 547.804893 143.373475 
L 545.21728 143.905036 
L 542.632086 144.466311 
L 540.049942 145.060611 
L 537.471084 145.688795 
L 534.895404 146.350094 
L 532.322773 147.043684 
L 529.753046 147.768687 
L 527.186056 148.524175 
L 524.621616 149.309175 
L 522.059519 150.122674 
L 519.499542 150.963622 
L 516.941441 151.830933 
L 514.384958 152.723494 
L 511.829822 153.640166 
L 509.275747 154.579788 
L 506.722442 155.541182 
L 504.169608 156.523157 
L 501.616943 157.524511 
L 499.064146 158.544039 
L 496.51092 159.580532 
L 493.956977 160.632788 
L 491.402042 161.699611 
L 488.845853 162.779815 
L 486.288172 163.872235 
L 483.728783 164.975724 
L 481.167501 166.089164 
L 478.604172 167.211466 
L 476.038681 168.341581 
L 473.470953 169.478498 
L 470.900959 170.621256 
L 468.328721 171.768944 
L 465.754311 172.920713 
L 463.17786 174.075774 
L 460.599557 175.233411 
L 458.019657 176.392981 
L 455.43848 177.553923 
L 452.856415 178.715764 
L 450.273923 179.878121 
" style="fill:none;stroke:#000000;stroke-linecap:square;stroke-width:3;"/>
   </g>
   <g id="line2d_29">
    <path clip-path="url(#pd267f3ec4a)" d="M 444.468724 166.961857 
L 331.99271 217.617624 
L 320.156286 223.178736 
L 311.346395 227.490075 
L 302.622285 231.972215 
L 294.014651 236.673842 
L 288.358622 239.95473 
L 282.782617 243.369745 
L 277.300126 246.932835 
L 271.925901 250.657094 
L 266.675944 254.554445 
L 261.567445 258.635323 
L 256.618676 262.908366 
L 251.848828 267.380124 
L 247.277791 272.054792 
L 242.925866 276.933986 
L 238.813429 282.016561 
L 234.960533 287.2985 
L 231.38646 292.772875 
L 228.109246 298.429896 
L 225.14518 304.25705 
L 222.508296 310.239343 
L 220.209881 316.359644 
L 218.258018 322.599119 
L 216.657169 328.937761 
L 215.40784 335.35499 
L 214.506304 341.830303 
L 213.944426 348.343967 
L 213.709562 354.877699 
L 213.784582 361.415337 
L 214.148273 367.943407 
L 214.776161 374.451508 
L 215.641434 380.932444 
L 216.715826 387.382125 
L 217.970447 393.799285 
L 220.127605 403.367044 
L 222.53285 412.875715 
L 225.982331 425.490278 
L 232.275255 447.494317 
L 232.275255 447.494317 
" style="fill:none;stroke:#000000;stroke-dasharray:5.55,2.4;stroke-dashoffset:0;stroke-width:1.5;"/>
   </g>
   <g id="line2d_30">
    <path clip-path="url(#pd267f3ec4a)" d="M 450.273922 179.878119 
L 337.928949 230.474187 
L 326.279395 235.947357 
L 314.849041 241.583913 
L 306.464975 245.97389 
L 298.280636 250.54891 
L 292.953551 253.721945 
L 287.743329 257.006956 
L 282.662239 260.414764 
L 277.723125 263.955209 
L 272.939371 267.636927 
L 268.324831 271.467142 
L 263.893736 275.451483 
L 259.660553 279.593838 
L 255.63982 283.896231 
L 251.84594 288.35875 
L 248.292947 292.979522 
L 244.994253 297.754731 
L 241.962365 302.678704 
L 239.208599 307.744052 
L 236.742795 312.941868 
L 234.573028 318.261991 
L 232.705343 323.69333 
L 231.143508 329.224234 
L 229.888793 334.842922 
L 228.939785 340.537934 
L 228.29223 346.298631 
L 227.938897 352.115696 
L 227.869476 357.981588 
L 228.070568 363.890346 
L 228.525903 369.837064 
L 229.216693 375.818002 
L 230.122046 381.830679 
L 231.219417 387.873808 
L 233.17344 396.995122 
L 235.423792 406.185672 
L 238.745654 418.548809 
L 244.076856 437.296826 
L 245.883966 443.578561 
L 245.883966 443.578561 
" style="fill:none;stroke:#0000ff;stroke-dasharray:5.55,2.4;stroke-dashoffset:0;stroke-width:1.5;"/>
   </g>
   <g id="line2d_31">
    <path clip-path="url(#pd267f3ec4a)" d="M 438.663526 154.045595 
L 326.056471 204.761061 
L 314.033176 210.410115 
L 305.010691 214.825597 
L 296.005347 219.452379 
L 287.044974 224.346889 
L 281.114015 227.787323 
L 275.232156 231.389733 
L 269.414399 235.1708 
L 263.677692 239.146352 
L 258.040916 243.330968 
L 252.524823 247.737565 
L 247.151899 252.37697 
L 241.94616 257.25751 
L 236.932857 262.384607 
L 232.138097 267.760427 
L 227.588382 273.383574 
L 223.310059 279.248866 
L 219.3287 285.347205 
L 215.668429 291.665562 
L 212.351208 298.18709 
L 209.396114 304.89137 
L 206.818629 311.75481 
L 204.629981 318.751163 
L 202.836555 325.852188 
L 201.439406 333.028402 
L 200.433901 340.249915 
L 199.809495 347.487299 
L 199.549659 354.712461 
L 199.632002 361.899733 
L 200.028971 369.02759 
L 200.709195 376.079576 
L 201.638943 383.044408 
L 202.783462 389.915775 
L 204.108163 396.691904 
L 206.360506 406.683235 
L 208.840088 416.486589 
L 212.34978 429.322208 
L 218.666545 451.410073 
L 218.666545 451.410073 
" style="fill:none;stroke:#ff0000;stroke-dasharray:5.55,2.4;stroke-dashoffset:0;stroke-width:1.5;"/>
   </g>
   <g id="line2d_32">
    <path clip-path="url(#pd267f3ec4a)" d="M 450.273922 179.878119 
L 441.381347 183.779374 
L 432.399874 187.482837 
L 420.333797 192.218805 
L 396.073457 201.405536 
L 380.943745 207.220667 
L 368.929421 212.071784 
L 360.003448 215.8932 
L 348.217148 221.19239 
L 336.571647 226.683696 
L 325.099928 232.370445 
L 316.641413 236.786577 
L 308.338676 241.360016 
L 300.224822 246.120568 
L 292.336984 251.099529 
L 287.223922 254.555225 
L 282.242069 258.129723 
L 277.404631 261.830294 
L 272.725122 265.663016 
L 268.217179 269.632566 
L 263.894358 273.742051 
L 259.76988 277.992897 
L 255.85635 282.384785 
L 252.165437 286.915669 
L 248.707529 291.581858 
L 245.491362 296.378175 
L 242.523638 301.298211 
L 239.808629 306.334645 
L 237.347785 311.479664 
L 235.139334 316.725449 
L 233.177885 322.064726 
L 231.454023 327.491386 
L 229.953872 333.00112 
L 228.658607 338.592084 
L 227.54387 344.265531 
L 226.141287 352.942257 
L 224.98009 361.849001 
L 224.367786 367.926917 
L 223.90792 374.113288 
L 223.611521 380.397516 
L 223.483153 386.764668 
L 223.522434 393.197212 
L 223.725823 399.676388 
L 224.088632 406.183234 
L 224.607155 412.699319 
L 225.280893 419.207216 
L 226.114801 425.69076 
L 227.121554 432.135072 
L 228.323819 438.526293 
L 229.756539 444.850903 
L 230.574167 447.983787 
L 230.574167 447.983787 
" style="fill:none;stroke:#000000;stroke-linecap:square;stroke-width:3;"/>
   </g>
   <g id="line2d_33">
    <path clip-path="url(#pd267f3ec4a)" d="M 232.275255 447.494317 
L 246.507553 496.684522 
L 249.935851 507.601643 
L 252.746006 515.710413 
L 254.779366 521.058193 
L 256.968231 526.344125 
L 259.333641 531.553337 
L 261.893164 536.669856 
L 264.660413 541.676969 
L 267.645059 546.557519 
L 270.852946 551.294237 
L 274.286275 555.870108 
L 277.943827 560.268757 
L 281.82125 564.474824 
L 285.911385 568.47432 
L 290.204641 572.254935 
L 294.689388 575.806301 
L 299.352378 579.120193 
L 304.179165 582.190666 
L 309.154522 585.014127 
L 314.262837 587.589343 
L 319.488484 589.917396 
L 324.816152 592.001579 
L 330.231134 593.847257 
L 335.719567 595.461684 
L 341.268621 596.853803 
L 346.866638 598.034024 
L 352.503222 599.013994 
L 358.169283 599.806364 
L 363.85704 600.42456 
L 369.559983 600.882561 
L 378.13159 601.300573 
L 386.712428 601.439154 
L 395.294014 601.346413 
L 406.729689 600.942409 
L 418.155176 600.309781 
L 435.278314 599.117681 
L 455.246029 597.597959 
L 455.246029 597.597959 
" style="fill:none;stroke:#000000;stroke-dasharray:5.55,2.4;stroke-dashoffset:0;stroke-width:1.5;"/>
   </g>
   <g id="line2d_34">
    <path clip-path="url(#pd267f3ec4a)" d="M 245.883966 443.578561 
L 260.066381 492.599388 
L 263.383916 503.165465 
L 266.047555 510.852539 
L 268.937965 518.295625 
L 271.022956 523.107634 
L 273.254168 527.7915 
L 275.645392 532.340705 
L 278.20715 536.748049 
L 280.946894 541.005745 
L 283.869251 545.105639 
L 286.976264 549.039453 
L 290.267627 552.799039 
L 293.740936 556.376629 
L 297.391936 559.765068 
L 301.214779 562.958033 
L 305.202287 565.950214 
L 309.346213 568.737476 
L 313.637499 571.316975 
L 318.066531 573.687248 
L 322.623381 575.84826 
L 327.298022 577.801425 
L 332.080543 579.549591 
L 336.961315 581.096996 
L 341.931153 582.449199 
L 346.98143 583.612997 
L 352.104173 584.596318 
L 357.292119 585.408101 
L 362.538754 586.058168 
L 370.506321 586.75335 
L 378.576644 587.146701 
L 386.736485 587.278307 
L 394.975242 587.189134 
L 406.068126 586.797004 
L 417.267889 586.176739 
L 434.227664 584.995844 
L 454.162909 583.478575 
L 454.162909 583.478575 
" style="fill:none;stroke:#0000ff;stroke-dasharray:5.55,2.4;stroke-dashoffset:0;stroke-width:1.5;"/>
   </g>
   <g id="line2d_35">
    <path clip-path="url(#pd267f3ec4a)" d="M 218.666545 451.410073 
L 232.948724 500.769656 
L 236.487785 512.03782 
L 239.444458 520.568288 
L 241.613558 526.272755 
L 243.973292 531.971 
L 246.547938 537.640696 
L 249.357282 543.256342 
L 252.416407 548.791353 
L 255.735697 554.218932 
L 259.320832 559.51254 
L 263.172908 564.646396 
L 267.288649 569.595993 
L 271.660735 574.338601 
L 276.278214 578.853731 
L 281.126985 583.123527 
L 286.190333 587.133092 
L 291.449509 590.870717 
L 296.884305 594.328012 
L 302.473632 597.499953 
L 308.196069 600.384829 
L 314.030366 602.984113 
L 319.955895 605.302258 
L 325.953034 607.346442 
L 332.003479 609.126267 
L 338.09049 610.653427 
L 344.199062 611.941367 
L 350.316024 613.004931 
L 356.430088 613.860023 
L 362.531832 614.523282 
L 368.613644 615.011772 
L 377.686536 615.454444 
L 386.688371 615.6 
L 395.612786 615.503691 
L 407.391252 615.087814 
L 419.042463 614.442823 
L 436.328965 613.239519 
L 456.32915 611.717343 
L 456.32915 611.717343 
" style="fill:none;stroke:#ff0000;stroke-dasharray:5.55,2.4;stroke-dashoffset:0;stroke-width:1.5;"/>
   </g>
   <g id="line2d_36">
    <path clip-path="url(#pd267f3ec4a)" d="M 230.574167 447.983787 
L 231.357318 450.705529 
L 232.175871 453.417084 
L 233.030081 456.11838 
L 233.920564 458.809239 
L 234.848294 461.48938 
L 235.814621 464.158415 
L 236.821279 466.815846 
L 237.870406 469.461056 
L 238.964564 472.093309 
L 240.106767 474.711738 
L 241.300558 477.315306 
L 242.539711 479.905634 
L 243.818729 482.483832 
L 245.132792 485.050465 
L 246.477676 487.605581 
L 247.849659 490.148744 
L 249.245445 492.679088 
L 250.662089 495.195385 
L 252.096916 497.69611 
L 253.547453 500.179529 
L 255.011357 502.643784 
L 256.486347 505.086983 
L 257.970138 507.507308 
L 259.460387 509.903111 
L 260.954631 512.273027 
L 262.450248 514.616084 
L 263.944414 516.931825 
L 265.434073 519.220416 
L 266.915919 521.482773 
L 268.386385 523.720682 
L 269.841639 525.936898 
L 271.288234 528.129927 
L 272.732121 530.298443 
L 274.17869 532.44123 
L 275.632807 534.557148 
L 277.098858 536.645104 
L 278.580773 538.704038 
L 280.082068 540.732899 
L 281.605866 542.730643 
L 283.154927 544.69622 
L 284.731671 546.628575 
L 286.3382 548.526647 
L 287.976318 550.389368 
L 289.647551 552.21567 
L 291.353165 554.004485 
L 293.094182 555.754752 
L 294.8714 557.465428 
L 296.6854 559.135485 
L 298.536557 560.763941 
L 300.42502 562.349899 
L 302.350779 563.892505 
L 304.313671 565.390963 
L 306.313397 566.844531 
L 308.349534 568.252537 
L 310.421544 569.614377 
L 312.528789 570.929523 
L 314.670541 572.197528 
L 316.845994 573.418028 
L 319.05427 574.590745 
L 321.294438 575.715492 
L 323.565515 576.792171 
L 325.86648 577.820779 
L 328.196283 578.801404 
L 330.553851 579.734227 
L 332.938098 580.619521 
L 335.34793 581.457653 
L 337.782256 582.249077 
L 340.239991 582.994334 
L 342.72006 583.694053 
L 345.221408 584.348943 
L 347.743003 584.959791 
L 350.283837 585.527461 
L 352.842933 586.052888 
L 355.419346 586.537073 
L 358.012166 586.981079 
L 360.62052 587.386027 
L 363.243572 587.753093 
L 365.880527 588.083499 
L 368.530627 588.378508 
L 371.193154 588.639424 
L 373.867428 588.86758 
L 376.552809 589.064339 
L 379.248691 589.231081 
L 381.954504 589.369204 
L 384.669711 589.480116 
L 387.393809 589.565227 
L 390.126319 589.625947 
L 392.866794 589.663679 
L 395.614807 589.679809 
L 398.369955 589.675709 
L 401.131855 589.65272 
L 403.900136 589.612154 
L 406.674446 589.555286 
L 409.454441 589.483345 
L 412.239785 589.39751 
L 415.030149 589.298903 
L 417.825208 589.18858 
L 420.624638 589.06753 
L 423.428113 588.936661 
L 426.235304 588.796798 
L 429.04588 588.648671 
L 431.859499 588.492913 
L 434.675813 588.330046 
L 437.494465 588.16048 
L 440.315084 587.984496 
L 443.137286 587.802246 
L 445.960673 587.613738 
L 448.78483 587.418829 
L 451.60932 587.217215 
L 454.433689 587.008421 
" style="fill:none;stroke:#000000;stroke-linecap:square;stroke-width:3;"/>
   </g>
   <g id="patch_3">
    <path d="M 135 640.8 
L 135 86.4 
" style="fill:none;stroke:#000000;stroke-linecap:square;stroke-linejoin:miter;stroke-width:0.8;"/>
   </g>
   <g id="patch_4">
    <path d="M 972 640.8 
L 972 86.4 
" style="fill:none;stroke:#000000;stroke-linecap:square;stroke-linejoin:miter;stroke-width:0.8;"/>
   </g>
   <g id="patch_5">
    <path d="M 135 640.8 
L 972 640.8 
" style="fill:none;stroke:#000000;stroke-linecap:square;stroke-linejoin:miter;stroke-width:0.8;"/>
   </g>
   <g id="patch_6">
    <path d="M 135 86.4 
L 972 86.4 
" style="fill:none;stroke:#000000;stroke-linecap:square;stroke-linejoin:miter;stroke-width:0.8;"/>
   </g>
  </g>
 </g>
 <defs>
  <clipPath id="pd267f3ec4a">
   <rect height="554.4" width="837" x="135" y="86.4"/>
  </clipPath>
 </defs>
</svg>
